<svg width="38" height="38" viewBox="0 0 38 38" fill="none" xmlns="http://www.w3.org/2000/svg">
<path d="M19 28.7822L11.2305 36.5512C10.5368 37.2409 9.69231 37.5857 8.69697 37.5857C7.70164 37.5857 6.85914 37.2409 6.16948 36.5512L1.29597 31.6782C0.606308 30.9845 0.261475 30.1399 0.261475 29.1442C0.261475 28.1489 0.606308 27.3064 1.29597 26.6167L9.08447 18.8282L1.35397 11.0972C0.664308 10.4075 0.312974 9.56404 0.299974 8.56671C0.287308 7.56937 0.625808 6.72587 1.31547 6.03621L6.16948 1.18221C6.86314 0.492539 7.70764 0.147705 8.70297 0.147705C9.69831 0.147705 10.5408 0.492539 11.2305 1.18221L18.981 8.93221L26.731 1.18221C27.4246 0.492539 28.2691 0.147705 29.2645 0.147705C30.2598 0.147705 31.1025 0.492539 31.7925 1.18221L36.6655 6.05521C37.3551 6.74887 37.7 7.59354 37.7 8.58921C37.7 9.58454 37.3551 10.427 36.6655 11.1167L28.896 18.8857L36.646 26.6362C37.3486 27.3332 37.7 28.1817 37.7 29.1817C37.7 30.182 37.3551 31.027 36.6655 31.7167L31.869 36.5127C31.1666 37.2154 30.3135 37.5699 29.3095 37.5762C28.3058 37.5825 27.4526 37.2345 26.75 36.5322L19 28.7822ZM19.0035 17.0592C19.5165 17.0592 19.9455 16.8855 20.2905 16.5382C20.6351 16.1912 20.8075 15.7612 20.8075 15.2482C20.8075 14.7349 20.634 14.3059 20.287 13.9612C19.94 13.6162 19.5098 13.4437 18.9965 13.4437C18.4835 13.4437 18.0545 13.6172 17.7095 13.9642C17.3648 14.3115 17.1925 14.7417 17.1925 15.2547C17.1925 15.7677 17.366 16.1967 17.713 16.5417C18.06 16.8867 18.4901 17.0592 19.0035 17.0592ZM11.173 16.7397L16.873 11.0397L9.12297 3.28971C9.00764 3.17437 8.86664 3.11671 8.69998 3.11671C8.53331 3.11671 8.39231 3.17437 8.27698 3.28971L3.42298 8.1437C3.30764 8.25904 3.24997 8.40004 3.24997 8.56671C3.24997 8.73337 3.30764 8.87437 3.42298 8.98971L11.173 16.7397ZM15.388 20.6742C15.901 20.6742 16.33 20.5007 16.675 20.1537C17.02 19.8067 17.1925 19.3765 17.1925 18.8632C17.1925 18.3502 17.0188 17.9212 16.6715 17.5762C16.3245 17.2315 15.8945 17.0592 15.3815 17.0592C14.8681 17.0592 14.4391 17.2327 14.0945 17.5797C13.7495 17.9267 13.577 18.3569 13.577 18.8702C13.577 19.3832 13.7505 19.8122 14.0975 20.1572C14.4448 20.5019 14.875 20.6742 15.388 20.6742ZM19.0035 24.2897C19.5165 24.2897 19.9455 24.1162 20.2905 23.7692C20.6351 23.4219 20.8075 22.9917 20.8075 22.4787C20.8075 21.9657 20.634 21.5367 20.287 21.1917C19.94 20.8467 19.5098 20.6742 18.9965 20.6742C18.4835 20.6742 18.0545 20.8479 17.7095 21.1952C17.3648 21.5422 17.1925 21.9722 17.1925 22.4852C17.1925 22.9985 17.366 23.4275 17.713 23.7722C18.06 24.1172 18.4901 24.2897 19.0035 24.2897ZM22.6185 20.6742C23.1318 20.6742 23.5608 20.5007 23.9055 20.1537C24.2505 19.8067 24.423 19.3765 24.423 18.8632C24.423 18.3502 24.2495 17.9212 23.9025 17.5762C23.5551 17.2315 23.125 17.0592 22.612 17.0592C22.099 17.0592 21.67 17.2327 21.325 17.5797C20.98 17.9267 20.8075 18.3569 20.8075 18.8702C20.8075 19.3832 20.9811 19.8122 21.3285 20.1572C21.6755 20.5019 22.1055 20.6742 22.6185 20.6742ZM21.1075 26.6742L28.877 34.4437C28.9923 34.559 29.1333 34.6167 29.3 34.6167C29.4666 34.6167 29.6076 34.559 29.723 34.4437L34.577 29.5897C34.6923 29.4744 34.75 29.3334 34.75 29.1667C34.75 29 34.6923 28.859 34.577 28.7437L26.8075 20.9742L21.1075 26.6742Z" fill="#5477CD"/>
</svg>
