<svg width="44" height="65" viewBox="0 0 44 65" fill="none" xmlns="http://www.w3.org/2000/svg">
<path fill-rule="evenodd" clip-rule="evenodd" d="M16.3372 51.0295H12.2673C11.6173 51.0295 10.9674 51.0309 10.3174 51.0323H10.3172H10.317L10.3115 51.0323C8.91444 51.0353 7.51707 51.0383 6.11879 51.0275C2.72917 50.9997 0.0258148 48.4015 0.0198646 45.0119C-0.0098862 30.7672 -0.00195265 18.6884 0.0158979 4.44365C0.0198646 1.87119 1.8545 0.0980441 4.43291 0.0960608C15.8354 0.0861438 27.2379 0.0861438 38.6424 0.0960608C41.3438 0.0980441 43.1368 1.86326 43.1387 4.56662C43.1526 18.7122 43.1566 30.6918 43.1387 44.8374C43.1348 48.4154 40.4751 51.0116 36.9089 51.0295C36.3433 51.0319 35.7776 51.0307 35.212 51.0295C34.3893 51.0278 33.5665 51.026 32.7438 51.0354C32.0238 51.0434 31.4605 50.8312 31.4427 50.0259C31.4248 49.2246 31.9782 48.9569 32.6962 48.9549C33.238 48.9533 33.7802 48.9542 34.3224 48.9552H34.3224H34.3225H34.3226C35.1359 48.9566 35.9494 48.958 36.7621 48.9509C39.3723 48.9271 41.0483 47.271 41.0483 44.6688C41.0542 30.6224 41.0522 18.7419 41.0483 4.69554C41.0483 3.00569 40.239 2.19052 38.5631 2.19052C27.226 2.18457 15.889 2.18457 4.55191 2.19052C2.9414 2.19052 2.10837 3.01958 2.10837 4.64001C2.10242 18.7538 2.09846 30.6978 2.10837 44.8116C2.10837 47.1599 3.73674 48.8934 6.03747 48.9331C8.37359 48.9741 10.7107 48.9646 13.0481 48.9551C13.9831 48.9513 14.9182 48.9475 15.8533 48.9469C15.9333 48.9469 16.0134 48.9298 16.1076 48.9097C16.1604 48.8984 16.2176 48.8862 16.2817 48.8755V47.0528C16.1828 47.0364 16.0793 47.0296 15.9778 47.023C15.7599 47.0087 15.5515 46.9951 15.4189 46.8882C15.0996 46.6284 14.6474 46.2079 14.687 45.9143C14.7232 45.6356 15.0089 45.3843 15.2841 45.1422C15.3712 45.0657 15.4572 44.99 15.5339 44.9147C15.5841 44.866 15.6952 44.8752 15.8024 44.8841C15.8436 44.8875 15.8843 44.8909 15.9207 44.8909C17.1769 44.8909 18.4329 44.8898 19.6888 44.8887C22.2005 44.8865 24.7118 44.8843 27.224 44.8909C28.3109 44.8949 28.9377 45.7279 28.3665 46.4399C28.1763 46.676 27.8562 46.808 27.4644 46.9695L27.4643 46.9695C27.2636 47.0523 27.044 47.1428 26.8135 47.2591V48.1694C26.8135 54.6135 26.8135 55.8809 26.8095 62.3249C26.8095 63.8799 26.5973 64.0881 25.0304 64.0901C22.7495 64.0921 20.4686 64.0921 18.1877 64.0901C16.5058 64.0901 16.3392 63.9195 16.3372 62.194V52.4V51.0295ZM18.4713 47.023V61.9223H24.6853V47.023H18.4713ZM21.5734 5.2608H35.4452C37.2977 5.2608 37.9641 5.92127 37.9661 7.75194C37.9681 15.5149 37.9681 21.1081 37.9661 28.8711C37.9661 30.7057 37.2957 31.3662 35.4472 31.3662C32.3907 31.3662 29.3342 31.3664 26.2777 31.3666L26.1987 31.3666C20.033 31.367 13.8673 31.3675 7.70157 31.3662C5.85503 31.3662 5.18266 30.7017 5.18266 28.873C5.1787 21.1101 5.1787 15.5169 5.18266 7.75392C5.18266 5.92127 5.85107 5.2608 7.70355 5.25882C10.7858 5.25749 13.869 5.25793 16.9518 5.25838H16.952H16.9522H16.9525C18.4935 5.2586 20.0346 5.25882 21.5754 5.25882L21.5734 5.2608ZM35.8379 7.43856H7.34257V29.1924H35.8379V7.43856ZM26.7637 35.1525C25.1432 34.0537 23.2967 33.7522 21.4482 33.7046C19.4093 33.7264 17.4953 34.0001 15.8035 35.1287C13.3698 36.7511 13.356 39.3929 15.7618 41.055C18.5723 42.9968 24.0068 42.9809 26.8093 41.0213C29.1616 39.3771 29.1477 36.7689 26.7637 35.1525ZM22.6026 40.3099C22.1587 40.4346 21.7102 40.5606 21.2617 40.702H21.2598C20.808 40.5606 20.3586 40.436 19.9157 40.3131L19.9156 40.3131C18.9293 40.0396 17.9747 39.7748 17.0946 39.3533C15.6884 38.6789 15.7321 37.6813 17.0193 36.8364C19.1673 35.4242 23.4018 35.4361 25.528 36.8582C26.7716 37.6892 26.8311 38.6829 25.4864 39.3235C24.5822 39.7536 23.6038 40.0285 22.6026 40.3099ZM23.2057 56.6682C23.1622 56.7784 23.1287 56.8792 23.0981 56.9712C23.0395 57.1477 22.9915 57.292 22.9042 57.408C22.4877 57.9654 22.2636 58.4612 22.686 59.1851C22.8368 59.443 22.5413 60.2839 22.2695 60.3891C21.9026 60.5299 21.1985 60.3633 20.9268 60.0658C20.1433 59.205 19.6336 58.2311 20.6035 57.0827C20.776 56.8785 20.6273 56.2953 20.4785 55.9502C20.4335 55.844 20.3832 55.7379 20.333 55.6322C20.0389 55.012 19.7521 54.4075 20.5876 53.8855C21.2164 53.4928 21.7638 53.8538 22.3489 54.9685C22.5498 55.3507 22.7412 55.7372 22.9259 56.1102L22.9259 56.1103C23.0201 56.3006 23.1126 56.4873 23.2037 56.6682H23.2057ZM16.1188 17.3337C14.0482 21.3778 17.0867 26.1102 21.6207 26.0725C26.1191 26.0348 29.0803 21.3481 27.0275 17.3377C25.9678 15.2645 24.7674 13.2629 23.5678 11.2625C23.2204 10.6832 22.873 10.1039 22.5291 9.52311C22.0373 8.69207 21.109 8.69406 20.6191 9.52113C20.2725 10.1067 19.9223 10.6906 19.572 11.2746C18.3751 13.2702 17.1775 15.2669 16.1188 17.3337ZM21.5682 12.0001C21.1629 12.7101 20.7597 13.3965 20.3642 14.0698C19.4728 15.587 18.6207 17.0377 17.8721 18.5416C17.051 20.1898 17.7591 22.1851 19.2744 23.274C20.6905 24.2914 22.6997 24.228 24.0623 23.1252C25.526 21.9391 26.0536 19.9776 25.1789 18.3194C24.427 16.8923 23.6108 15.4992 22.7499 14.0298C22.3643 13.3719 21.9699 12.6986 21.5682 12.0001Z" fill="#5377CD"/>
</svg>
