<svg width="53" height="50" viewBox="0 0 53 50" fill="none" xmlns="http://www.w3.org/2000/svg">
<path d="M24.2053 41.4234C21.3369 41.4234 18.6702 40.8919 16.2053 39.8288C13.74 38.7652 11.5827 37.3121 9.73333 35.4694C9.31956 35.0832 9.12222 34.6183 9.14133 34.0748C9.16 33.5312 9.38978 33.0663 9.83067 32.6801C10.2716 32.3108 10.7758 32.1456 11.3433 32.1848C11.9109 32.2243 12.4151 32.4372 12.856 32.8234C14.364 34.2696 16.0753 35.3979 17.99 36.2081C19.9042 37.0183 21.976 37.4234 24.2053 37.4234C28.8204 37.4234 32.752 35.7994 36 32.5514C39.248 29.3039 40.872 25.3723 40.872 20.7568C40.872 16.1412 39.248 12.2096 36 8.96209C32.752 5.71409 28.8204 4.09009 24.2053 4.09009C20.2258 4.09009 16.7309 5.32942 13.7207 7.80809C10.7104 10.2868 8.79844 13.3996 7.98467 17.1468C7.81356 17.7485 7.52467 18.2783 7.118 18.7361C6.71089 19.1943 6.20667 19.4234 5.60533 19.4234C5.02044 19.4234 4.55467 19.1748 4.208 18.6774C3.86089 18.1801 3.75911 17.6305 3.90267 17.0288C4.788 12.1741 7.11445 8.1372 10.882 4.91809C14.6496 1.69942 19.0907 0.0900879 24.2053 0.0900879C29.9729 0.0900879 34.8591 2.09275 38.864 6.09809C42.8693 10.103 44.872 14.9892 44.872 20.7568C44.872 23.3141 44.4591 25.667 43.6333 27.8154C42.8076 29.9643 41.6409 31.9841 40.1333 33.8748L51.9793 45.7208C52.3656 46.1074 52.5544 46.5759 52.546 47.1261C52.5376 47.6763 52.3487 48.1448 51.9793 48.5314C51.5931 48.9176 51.1204 49.1108 50.5613 49.1108C50.0027 49.1108 49.5302 48.9176 49.144 48.5314L37.2973 36.6848C35.4067 38.1928 33.3913 39.3594 31.2513 40.1848C29.1113 41.0105 26.7627 41.4234 24.2053 41.4234ZM23.3127 25.7414L26.19 16.8954C26.306 16.591 26.4913 16.3379 26.746 16.1361C27.0007 15.9343 27.2938 15.8334 27.6253 15.8334H28.9947C29.2991 15.8334 29.5676 15.9054 29.8 16.0494C30.0324 16.193 30.2204 16.4032 30.364 16.6801L33.9487 23.8334H34.4613C34.9196 23.8334 35.2991 23.9839 35.6 24.2848C35.9009 24.5856 36.0513 24.9652 36.0513 25.4234C36.0513 25.8816 35.9009 26.2612 35.6 26.5621C35.2991 26.863 34.9196 27.0134 34.4613 27.0134H33.0053C32.7182 27.0134 32.442 26.9348 32.1767 26.7774C31.9118 26.6201 31.7076 26.3979 31.564 26.1108L28.528 20.0794L25.3127 29.9261C25.1967 30.2576 25.0044 30.5216 24.736 30.7181C24.4676 30.915 24.1676 31.0134 23.836 31.0134H22.8153C22.4664 31.0134 22.1511 30.9081 21.8693 30.6974C21.5871 30.4872 21.388 30.2163 21.272 29.8848L17.164 16.2488L13.754 25.9621C13.6376 26.2936 13.4511 26.5516 13.1947 26.7361C12.9382 26.921 12.6307 27.0134 12.272 27.0134H2.20533C1.74711 27.0134 1.36756 26.863 1.06667 26.5621C0.765778 26.2612 0.615334 25.8816 0.615334 25.4234C0.615334 24.9652 0.765778 24.5856 1.06667 24.2848C1.36756 23.9839 1.74711 23.8334 2.20533 23.8334H11.154L15.164 12.2541C15.2804 11.9225 15.4796 11.6585 15.7613 11.4621C16.0436 11.2652 16.3591 11.1668 16.708 11.1668H17.7693C18.1453 11.1668 18.4676 11.2788 18.736 11.5028C19.0044 11.7268 19.1967 12.0132 19.3127 12.3621L23.3127 25.7414Z" fill="#5477CD"/>
</svg>
