<svg width="58" height="56" viewBox="0 0 58 56" fill="none" xmlns="http://www.w3.org/2000/svg">
<path d="M26.75 35.4137V42.1637C26.75 42.8022 26.9655 43.3367 27.3965 43.7672C27.827 44.1982 28.3615 44.4137 29 44.4137C29.6385 44.4137 30.173 44.1982 30.6035 43.7672C31.0345 43.3367 31.25 42.8022 31.25 42.1637V35.4137H38C38.6385 35.4137 39.173 35.1982 39.6035 34.7672C40.0345 34.3367 40.25 33.8022 40.25 33.1637C40.25 32.5252 40.0345 31.9907 39.6035 31.5602C39.173 31.1292 38.6385 30.9137 38 30.9137H31.25V24.1637C31.25 23.5252 31.0345 22.9907 30.6035 22.5602C30.173 22.1292 29.6385 21.9137 29 21.9137C28.3615 21.9137 27.827 22.1292 27.3965 22.5602C26.9655 22.9907 26.75 23.5252 26.75 24.1637V30.9137H20C19.3615 30.9137 18.827 31.1292 18.3965 31.5602C17.9655 31.9907 17.75 32.5252 17.75 33.1637C17.75 33.8022 17.9655 34.3367 18.3965 34.7672C18.827 35.1982 19.3615 35.4137 20 35.4137H26.75ZM5.92325 55.6637C4.40775 55.6637 3.125 55.1387 2.075 54.0887C1.025 53.0387 0.5 51.7559 0.5 50.2404V16.0869C0.5 14.5714 1.025 13.2887 2.075 12.2387C3.125 11.1887 4.40775 10.6637 5.92325 10.6637H18.5V5.58695C18.5 4.07145 19.025 2.7887 20.075 1.7387C21.125 0.688696 22.4078 0.163696 23.9233 0.163696H34.0768C35.5923 0.163696 36.875 0.688696 37.925 1.7387C38.975 2.7887 39.5 4.07145 39.5 5.58695V10.6637H52.0768C53.5923 10.6637 54.875 11.1887 55.925 12.2387C56.975 13.2887 57.5 14.5714 57.5 16.0869V50.2404C57.5 51.7559 56.975 53.0387 55.925 54.0887C54.875 55.1387 53.5923 55.6637 52.0768 55.6637H5.92325ZM5.92325 51.1637H52.0768C52.3078 51.1637 52.5193 51.0675 52.7113 50.875C52.9038 50.683 53 50.4714 53 50.2404V16.0869C53 15.8559 52.9038 15.6444 52.7113 15.4524C52.5193 15.2599 52.3078 15.1637 52.0768 15.1637H5.92325C5.69225 15.1637 5.48075 15.2599 5.28875 15.4524C5.09625 15.6444 5 15.8559 5 16.0869V50.2404C5 50.4714 5.09625 50.683 5.28875 50.875C5.48075 51.0675 5.69225 51.1637 5.92325 51.1637ZM23 10.6637H35V5.58695C35 5.35595 34.9038 5.14444 34.7113 4.95244C34.5193 4.75994 34.3078 4.6637 34.0768 4.6637H23.9233C23.6923 4.6637 23.4808 4.75994 23.2888 4.95244C23.0963 5.14444 23 5.35595 23 5.58695V10.6637Z" fill="#5477CD"/>
</svg>
