<svg width="31" height="33" viewBox="0 0 31 33" fill="none" xmlns="http://www.w3.org/2000/svg">
<g clip-path="url(#clip0_0_140)">
<path d="M0.249953 31.2172C0.385521 31.0839 0.520472 30.9498 0.654191 30.8139C1.12252 30.3381 1.58653 29.8573 2.06902 29.3606C2.19042 29.2354 2.18919 29.0315 2.06533 28.9083C1.77632 28.6206 1.48855 28.3341 1.17982 28.0266C1.05165 27.8996 1.05288 27.6843 1.1866 27.5636C1.19523 27.556 1.20386 27.5477 1.21187 27.5388C2.54844 26.1668 5.45575 23.1007 5.53093 22.9222C6.11757 21.5356 6.69126 20.1426 7.27605 18.7547C7.35493 18.5679 7.46708 18.3983 7.60635 18.2541C12.5983 13.1027 17.594 7.95439 22.5896 2.80611C22.5946 2.80103 22.5995 2.79595 22.6044 2.79087C22.7264 2.667 22.9236 2.67018 23.042 2.79722C23.3248 3.10084 23.6052 3.40256 23.8948 3.71317C24.015 3.84212 24.2146 3.84339 24.3366 3.71699C25.2474 2.77118 26.1273 1.8584 26.9931 0.959591C27.1127 0.835092 27.308 0.835728 27.4282 0.959591C28.5996 2.1671 29.7525 3.35619 30.9092 4.54909C31.0287 4.67232 31.0293 4.87241 30.9092 4.99564C30.0452 5.88301 29.1634 6.78944 28.2668 7.71047C28.1455 7.83561 28.1461 8.03951 28.2687 8.16274C28.5756 8.47208 28.8714 8.77062 29.1807 9.0825C29.3064 9.20954 29.3039 9.41979 29.1745 9.54302C28.8714 9.83267 28.5799 10.1109 28.2903 10.3872C28.1621 10.5092 28.159 10.7169 28.2823 10.8439C29.0334 11.6169 29.7507 12.355 30.4544 13.0792C30.5746 13.203 30.5746 13.4038 30.4544 13.527C28.9958 15.0305 23.6181 20.7428 22.2027 22.2025C22.0825 22.3264 21.889 22.3264 21.7695 22.2025C21.507 21.9313 21.2346 21.6499 20.9591 21.3653C20.839 21.2415 20.839 21.0407 20.9591 20.9175C21.9278 19.9222 26.8606 14.671 27.8417 13.6636C27.9624 13.5397 27.9618 13.3383 27.8417 13.2145C27.5379 12.9026 27.2458 12.6021 26.929 12.2756C26.8101 12.153 26.6166 12.1537 26.4983 12.2769L26.4866 12.289C22.3931 16.5143 18.2971 20.7365 14.1968 24.9542C14.0255 25.1301 13.824 25.2724 13.6021 25.3722C12.2785 25.9667 10.9487 26.546 9.62445 27.1399C9.45191 27.2174 6.47682 30.2149 5.14518 31.5914C5.13655 31.6003 5.12792 31.6098 5.11991 31.6187C5.00221 31.754 4.79578 31.754 4.67315 31.6231C4.39154 31.3233 4.1315 31.0464 3.89857 30.798C3.78149 30.6735 3.58923 30.6697 3.46722 30.7891C2.82759 31.4148 2.20028 32.0284 1.57543 32.6395C1.26178 32.9463 0.755251 32.9393 0.449607 32.6242C0.378742 32.5512 0.307261 32.4775 0.236396 32.4044C-0.0840361 32.0741 -0.0766415 31.5374 0.250569 31.2153L0.249953 31.2172ZM22.6402 5.53619C21.1076 7.11593 11.9371 16.5683 10.4052 18.1468C10.285 18.2706 10.2857 18.4707 10.4052 18.594C11.539 19.7621 12.6858 20.9436 13.8042 22.0958C13.9238 22.219 14.1173 22.219 14.2374 22.0958C18.3119 17.8971 22.3937 13.6896 26.4712 9.48712C26.5907 9.3639 26.5914 9.16381 26.4712 9.04058C25.3521 7.88579 24.2109 6.70877 23.0746 5.53619C22.9544 5.41233 22.7603 5.41233 22.6402 5.53619ZM12.305 23.3986C11.25 22.3111 10.2062 21.2351 9.16167 20.1584C9.00762 19.9996 8.74758 20.0511 8.66192 20.2575C8.23365 21.2891 7.79552 22.3416 7.36602 23.3986C7.33891 23.4659 7.38019 23.6012 7.43504 23.6597C7.92 24.1742 8.41236 24.6817 8.91149 25.1816C8.96757 25.2375 9.09944 25.2781 9.16537 25.2502C10.1901 24.8081 11.2106 24.3565 12.2095 23.9156C12.4098 23.8274 12.4597 23.558 12.3056 23.3986H12.305ZM5.09218 28.867C5.80946 28.1289 6.51811 27.3991 7.19533 26.7023C7.31487 26.579 7.31549 26.3796 7.19656 26.2557C6.9322 25.9807 6.666 25.7031 6.41458 25.442C6.29565 25.3182 6.10154 25.3169 5.98138 25.4395C5.28506 26.1477 4.5721 26.8731 3.86221 27.596C3.74082 27.7192 3.7402 27.9212 3.86098 28.0451C4.12534 28.3176 4.39339 28.5939 4.65898 28.8676C4.77914 28.9915 4.97325 28.9909 5.09341 28.8676L5.09218 28.867ZM25.7348 5.46124C26.009 5.74517 26.2771 6.02275 26.5273 6.28191C26.6468 6.40578 26.8409 6.40641 26.9617 6.28319C27.3887 5.84617 27.8226 5.40217 28.2373 4.97785C28.358 4.85399 28.358 4.65327 28.2373 4.5294C27.9748 4.25944 27.7042 3.98186 27.4368 3.70682C27.3166 3.58359 27.1232 3.58359 27.003 3.70682C26.584 4.13876 26.1545 4.58085 25.7354 5.01279C25.6153 5.13665 25.6153 5.33674 25.7354 5.4606L25.7348 5.46124Z" fill="#5477CD"/>
<path d="M22.7981 10.6469C20.3209 13.2004 17.829 15.7685 15.3499 18.3239C15.011 18.6733 14.4613 18.6727 14.1224 18.3239C14.1181 18.3195 14.1138 18.3151 14.1101 18.3112C13.7712 17.9619 13.7712 17.3959 14.1101 17.0466C16.5836 14.4969 19.0774 11.9262 21.5583 9.36956C21.8972 9.0202 22.4469 9.0202 22.7858 9.36956C22.7901 9.37401 22.7944 9.37846 22.7987 9.3829C23.137 9.73226 23.1377 10.2982 22.7987 10.6476L22.7981 10.6469Z" fill="#5477CD"/>
</g>
<defs>
<clipPath id="clip0_0_140">
<rect width="31" height="32" fill="white" transform="translate(0 0.866699)"/>
</clipPath>
</defs>
</svg>
