<svg width="64" height="65" viewBox="0 0 64 65" fill="none" xmlns="http://www.w3.org/2000/svg">
<path fill-rule="evenodd" clip-rule="evenodd" d="M58.638 1.49712C59.8039 2.58255 60.5275 3.90918 60.5275 5.55742L60.6079 5.63783C60.6079 7.70148 60.6213 9.76513 60.6347 11.8288V11.8292C60.6615 15.9564 60.6883 20.0835 60.6079 24.2107C60.5275 29.075 56.4672 33.0549 51.6028 33.2961H51.1606V38.2408C51.2812 38.281 51.442 38.3212 51.5626 38.3212C53.6933 38.7233 55.0601 40.4519 54.8591 42.5022C54.6581 44.5926 53.0903 46.0398 50.9194 46.1202H46.9797C47.7838 49.1755 47.4621 50.1805 45.2109 51.7886C45.8541 52.7936 46.1355 53.879 45.8541 55.0851C45.5727 56.2911 44.8893 57.1755 43.7235 57.7383C44.2863 58.663 44.6079 59.6278 44.4471 60.7132C44.1255 62.7233 42.5576 64.0901 40.427 64.0901H31.1807H24.427C22.4973 64.1303 20.7285 63.5273 19.1606 62.4418C19.0833 62.38 19 62.324 18.9153 62.2672C18.7799 62.1763 18.6411 62.0831 18.5174 61.9594C16.9094 60.4318 15.0199 60.1504 12.9295 60.4318C12.8893 60.5524 12.8491 60.7132 12.8491 60.874C12.7285 61.6378 12.2863 62.1202 11.5224 62.1202H4.32647C3.56265 62.08 3.04004 61.5976 3.04004 60.7936V51.2258C3.04004 50.663 3.44205 50.2609 3.96466 50.2609C4.48728 50.2609 4.88929 50.663 4.88929 51.3464V57.4167V60.1906H10.9194V38.3614H4.88929V39.0449V46.4016C4.88929 46.6429 4.88929 46.8841 4.80888 47.1253C4.68828 47.5675 4.32647 47.7685 3.88426 47.7685C3.44205 47.7283 3.12044 47.4469 3.04004 46.9645V46.5223V38.0398C3.04004 36.874 3.52245 36.4318 4.68828 36.4318H10.7988C12.4069 36.4318 12.5677 36.5524 12.9295 38.1202C15.4219 38.3614 17.8742 38.0398 20.0853 36.7936C21.2511 36.1102 21.9747 35.0248 22.3767 33.7785C22.7385 32.6529 22.9395 31.4871 23.1405 30.3212C23.3415 29.1152 23.824 28.1504 25.03 27.668C26.236 27.1856 27.3214 27.467 28.2461 28.271C31.0601 30.8037 31.9446 33.9393 31.1405 37.5976C31.1003 37.7584 31.0601 37.9192 31.0199 38.1202H43.9245V33.2961C43.6526 33.2467 43.3846 33.2049 43.1204 33.1636L43.1203 33.1636C42.5249 33.0707 41.9487 32.9808 41.3918 32.8137C37.3315 31.6881 34.437 27.9896 34.437 23.7283V5.79863C34.437 3.02476 36.2461 0.813706 38.9395 0.210691L39.3013 0.0900879H55.7838L55.8566 0.113396L55.8566 0.113399C56.8391 0.427491 57.8534 0.751754 58.638 1.49712ZM36.2863 62.2006H40.4672V62.1604C41.6732 62.1202 42.4772 61.3162 42.4772 60.1504C42.4772 59.0248 41.7134 58.1001 40.5074 58.1001C37.6933 58.0599 34.839 58.0599 32.025 58.1001C30.8189 58.1001 30.0953 59.0248 30.0953 60.1906C30.1355 61.3966 30.9797 62.2006 32.226 62.2006H36.2863ZM41.9546 56.2107C42.9194 56.2107 43.6431 55.6077 43.8843 54.8037C44.3265 53.3966 43.4018 52.1102 41.9144 52.1102H37.0501H32.1858C30.9395 52.1504 30.1355 52.9544 30.1355 54.1604C30.0953 55.3263 30.8993 56.2107 32.1456 56.2107H41.9546ZM43.4018 50.2207C44.4069 50.1805 45.1707 49.5775 45.3717 48.6931H45.4119C45.7335 47.3263 44.8491 46.1202 43.4018 46.1202H37.7737H32.226C30.9797 46.1604 30.1355 46.9645 30.1355 48.1303C30.0953 49.3363 30.8993 50.2207 32.1858 50.2207H43.4018ZM52.8491 42.1805C52.8893 41.2157 52.2863 40.4117 51.3214 40.1705H51.3616C50.9596 40.0499 50.638 40.0901 50.3164 40.5323C48.9094 42.4217 46.0953 42.4217 44.6883 40.5323C44.4069 40.2107 44.1657 40.0901 43.7637 40.0901H30.0953H29.4521C28.8089 39.9695 28.4873 39.4469 28.6481 38.8439C28.6961 38.6999 28.7584 38.5702 28.8179 38.4464C28.8581 38.3627 28.8971 38.2817 28.9295 38.2006C30.1757 35.266 29.3315 31.5675 27.04 29.7584C26.638 29.3966 26.236 29.1956 25.7134 29.3966C25.1908 29.5976 25.0702 30.08 24.9898 30.5625L24.9674 30.7084L24.9674 30.7084C24.8138 31.7085 24.6551 32.7417 24.3868 33.7383C23.7838 35.869 22.6179 37.678 20.5677 38.6831C18.7184 39.6077 16.7486 40.0901 14.6581 40.0901H12.8491V58.5021H14.4169C15.0199 58.5021 15.6632 58.5424 16.2662 58.663C17.5124 58.9042 18.5174 59.6278 19.4822 60.3916C20.4471 61.1554 21.4923 61.9192 22.7787 62.0398C24.0949 62.1741 25.4111 62.2008 26.7392 62.2276H26.7393C27.3989 62.241 28.0615 62.2544 28.7285 62.281C27.7637 59.8288 28.2863 58.5021 29.4923 57.1353C27.6431 55.2057 27.8843 52.7132 29.4923 51.1052C29.4259 51.0388 29.3717 50.9724 29.323 50.9127C29.2832 50.864 29.247 50.8197 29.2109 50.7836C28.1657 49.5775 27.9245 48.2509 28.4069 46.7635C28.9295 45.276 30.0149 44.472 31.5425 44.2308C31.9445 44.1906 32.3867 44.1906 32.7887 44.1906H32.7888H50.236C50.5978 44.1906 50.9596 44.1906 51.2812 44.1102C52.2461 43.9092 52.8491 43.1454 52.8491 42.1805ZM45.8541 28.673C45.8139 28.8338 45.8139 29.1152 45.8139 29.1152V38.2408C45.8139 38.6026 45.8943 39.0449 46.0953 39.3665C46.4169 40.0097 47.1807 40.2509 47.8642 40.0499C48.628 39.8087 49.0702 39.2057 49.0702 38.3614V28.9946V28.673H45.8541ZM51.8039 31.3263C55.6229 30.8841 58.5978 27.7484 58.638 23.9293L58.6782 23.8891C58.705 19.8445 58.6961 15.8177 58.6872 11.7851V11.7845V11.7826V11.7819V11.7812C58.6827 9.76271 58.6782 7.74271 58.6782 5.71823C58.6782 3.54737 57.03 1.97954 54.8591 1.97954H40.1858C37.9747 1.97954 36.3265 3.58758 36.3265 5.83883V23.6881C36.3265 27.266 38.8591 30.4016 42.3566 31.1655C42.6526 31.2395 42.9788 31.2681 43.3168 31.2977C43.5297 31.3163 43.7472 31.3354 43.9647 31.3665V28.3916C44.0049 27.3464 44.5677 26.7434 45.6531 26.7434H49.2712C50.3968 26.7434 50.9998 27.3464 50.9998 28.472V31.3263H51.8039ZM41.4321 5.03479H53.613H53.6532C55.1808 5.03479 55.7034 5.5574 55.7034 7.04484V12.5926C55.6632 13.8388 55.0602 14.4418 53.8542 14.4418H50.2763C49.5527 14.4418 49.1105 14.08 49.1105 13.5172C49.1105 12.9544 49.5527 12.5926 50.2763 12.5926H53.7738V6.92424H41.3115V12.5524H41.8341H45.211C45.9748 12.5524 46.417 12.9142 46.417 13.5172C46.417 14.08 45.9748 14.4418 45.2512 14.4418H41.1105H40.9095C40.0251 14.4016 39.3818 13.8388 39.3818 12.9544V6.52223C39.3818 5.67801 39.9446 5.11519 40.7889 5.03479H41.4321ZM52.2061 18.0197C50.3569 18.0197 48.8293 19.5474 48.7891 21.3966C48.7891 23.2458 50.3167 24.8137 52.2061 24.8539C54.0956 24.8539 55.6232 23.3262 55.6232 21.4368C55.6232 19.5474 54.0554 18.0197 52.2061 18.0197ZM52.2463 22.9644C51.4021 22.9644 50.6785 22.281 50.6785 21.4368C50.6785 20.6328 51.3619 19.9092 52.1659 19.9092C53.0102 19.9092 53.7338 20.5926 53.7338 21.4368C53.7338 22.2408 53.0504 22.9644 52.2463 22.9644ZM39.3818 21.3564C39.422 19.467 40.9497 17.9796 42.8391 18.0198V17.9796C44.7286 18.0198 46.1758 19.5876 46.1758 21.477C46.1356 23.3665 44.5678 24.8539 42.6783 24.8137C40.8291 24.7735 39.3818 23.2057 39.3818 21.3564ZM41.2311 21.3966C41.2311 22.2811 41.9145 22.9645 42.7587 22.9645C43.6029 22.9645 44.2864 22.2409 44.2864 21.3966C44.2462 20.5926 43.6029 19.9092 42.7587 19.9092C41.9145 19.9092 41.2311 20.5524 41.2311 21.3966Z" fill="#5377CD"/>
</svg>
