<svg width="64" height="65" viewBox="0 0 64 65" fill="none" xmlns="http://www.w3.org/2000/svg">
<g clip-path="url(#clip0_50_20)">
<path d="M35.5401 42.9736C36.3801 43.3436 37.1301 43.7136 37.9201 43.9936C38.6101 43.9536 39.3001 43.3936 39.9401 42.5736C39.9301 42.4136 39.9001 42.2636 39.9001 42.0936C39.8101 39.7636 40.5101 37.6736 42.1201 35.9536C42.6201 35.4136 43.2301 34.9836 43.8401 34.4636C44.5801 32.7236 45.7201 31.7736 45.7201 31.7736C45.7201 30.8636 45.8601 29.8236 45.6801 28.8536C45.5001 27.8636 45.0001 26.9236 44.6201 25.9136C46.2601 23.4336 46.2401 20.8536 44.5201 18.2836C46.2601 15.6736 46.2401 13.0736 44.5001 10.4836C44.5601 10.3936 44.6201 10.3036 44.6701 10.2236C47.2401 6.43357 45.2201 1.42357 40.7301 0.453567C40.6401 0.433567 40.5601 0.383567 40.4701 0.343567H38.7001C37.7401 0.743567 36.7801 1.15357 35.8201 1.55357C35.7201 1.59357 35.5401 1.60357 35.4601 1.55357C34.6101 0.883567 33.5901 0.633567 32.5701 0.353567H30.9201C29.9101 0.623567 28.8901 0.893567 28.0401 1.55357C27.9701 1.60357 27.7901 1.62357 27.7301 1.58357C26.8701 0.893567 25.8301 0.623567 24.7901 0.353567H23.1401C22.1301 0.633567 21.1101 0.893567 20.2601 1.56357C20.1901 1.61357 20.0201 1.63357 19.9501 1.58357C19.0801 0.893567 18.0501 0.623567 17.0101 0.353567H15.3601C14.3201 0.743567 13.2801 1.13357 12.2201 1.52357C11.3001 1.16357 10.2701 0.753567 9.23014 0.353567H7.70014C7.35014 0.673567 6.99014 0.983567 7.20014 1.54357C7.41014 2.09357 7.86014 2.12357 8.36014 2.13357C9.53014 2.13357 10.5401 2.56357 11.4001 3.34357C12.0701 3.94357 12.4701 3.93357 13.1301 3.32357C14.8401 1.75357 17.4601 1.72357 19.1901 3.27357C19.9401 3.94357 20.2101 3.94357 20.9401 3.28357C22.6201 1.75357 25.2601 1.74357 26.9601 3.27357C27.7101 3.94357 27.9801 3.95357 28.7101 3.29357C30.4001 1.76357 33.0401 1.75357 34.7301 3.27357C35.4801 3.95357 35.7401 3.95357 36.4801 3.29357C38.3101 1.68357 40.9501 1.74357 42.6601 3.44357C44.3701 5.14357 44.4601 7.80357 42.8701 9.63357C42.1901 10.4236 42.1901 10.6536 42.8801 11.4236C44.3701 13.1036 44.3701 15.7236 42.8801 17.4036C42.1901 18.1736 42.1901 18.4036 42.8801 19.1936C44.3601 20.8636 44.3701 23.4536 42.9101 25.1336C42.1701 25.9836 42.1701 26.1536 42.9201 27.0136C44.6301 28.9636 44.2501 32.0136 42.1401 33.5536C40.0701 35.0536 38.8301 37.0936 38.3201 39.5736C38.1501 40.4236 38.1001 41.3036 37.9901 42.3036C37.4601 41.9536 36.9501 41.6836 36.5001 41.3236C35.7101 40.6936 35.5001 40.7036 34.7301 41.3136C34.2801 41.6736 33.7701 42.0136 33.2201 42.1936C31.5001 42.7636 29.9301 42.4536 28.5801 41.2136C28.0601 40.7336 27.5901 40.7236 27.1401 41.1736C26.6801 41.6336 26.7201 42.0836 27.2401 42.6536C28.8301 44.3836 28.9001 47.0936 27.2701 48.7536C25.9401 50.1036 25.3401 51.6536 25.4201 53.5336C25.4801 54.7636 25.4401 56.0036 25.4201 57.2436C25.4001 58.2936 24.6901 59.0236 23.8001 58.9336C23.0001 58.8536 22.4601 58.2236 22.4401 57.2936C22.4201 56.0536 22.3901 54.8136 22.4401 53.5836C22.5201 51.6936 21.9301 50.1136 20.5801 48.7436C19.0201 47.1636 19.0201 44.5136 20.4601 42.8236C21.2501 41.8936 21.2401 41.8236 20.4501 40.8536C19.5501 39.7536 19.2101 38.4936 19.4901 37.1036C20.2101 33.6336 24.2701 32.2936 26.9401 34.6336C27.6601 35.2636 27.9101 35.2336 28.6501 34.6336C29.0501 34.3036 29.5001 33.9736 29.9901 33.8036C31.7801 33.1536 33.4201 33.4336 34.8401 34.7536C35.3401 35.2236 35.8701 35.1936 36.3301 34.7036C36.7701 34.2436 36.8201 33.7036 36.3701 33.3036C34.5001 31.6236 34.4801 28.4136 36.2501 26.7536C36.7201 26.3136 36.7101 25.8536 36.2501 25.4036C34.5001 23.7236 34.5301 20.6036 36.2501 18.9736C36.7201 18.5336 36.7001 18.0736 36.2401 17.6236C34.4901 15.9536 34.5201 12.8236 36.2601 11.2036C36.6901 10.8036 36.6301 10.2536 36.2201 9.85357C35.8101 9.44357 35.3101 9.44357 34.8601 9.84357C32.8601 11.6136 30.5001 11.6136 28.5001 9.86357C28.0001 9.42357 27.5401 9.38357 27.1001 9.86357C25.5001 11.5536 22.4301 11.6236 20.7201 9.87357C20.2601 9.40357 19.7701 9.39357 19.3201 9.87357C17.7201 11.5636 14.6001 11.6436 12.9001 9.83357C12.5601 9.46357 12.1401 9.45357 11.7201 9.69357C11.0501 10.0736 10.9701 10.7036 11.5001 11.3036C13.1101 13.0836 13.1801 15.7036 11.6501 17.4136C10.9301 18.2136 10.9301 18.4136 11.6601 19.2536C13.0901 20.8936 13.1101 23.4636 11.7201 25.1036C10.9101 26.0536 10.9101 26.1236 11.7001 27.0736C13.2601 28.9436 13.0801 31.6536 11.2901 33.2936C9.51014 34.9336 6.81014 34.8836 5.11014 33.1936C3.34014 31.4336 3.27014 28.7536 4.93014 26.9236C5.54014 26.2536 5.54014 25.9336 4.93014 25.2636C3.34014 23.5036 3.34014 20.8836 4.93014 19.1536C5.54014 18.4836 5.54014 18.1736 4.93014 17.4936C3.33014 15.7036 3.34014 13.1236 4.97014 11.3436C5.51014 10.7536 5.52014 10.4036 5.01014 9.80357C3.26014 7.76357 3.29014 5.45357 5.10014 3.44357C5.51014 2.98357 5.53014 2.43357 5.14014 2.08357C4.77014 1.74357 4.26014 1.79357 3.83014 2.21357C2.66014 3.37357 2.04014 4.78357 1.97014 6.41357C1.90014 7.94357 2.39014 9.30357 3.27014 10.5136C3.24014 10.5936 3.23014 10.6336 3.21014 10.6636C1.56014 13.1036 1.52014 15.5536 3.09014 18.0536C3.18014 18.1936 3.15014 18.4936 3.05014 18.6436C1.61014 20.8436 1.59014 23.5536 3.05014 25.7336C3.24014 26.0136 3.23014 26.1836 3.05014 26.4436C2.40014 27.3336 2.04014 28.3536 1.97014 29.4536C1.80014 32.2136 3.48014 34.8536 6.01014 35.8336C8.51014 36.8136 11.4301 36.0236 13.1301 33.9036C14.8601 31.7636 14.9801 28.8136 13.4201 26.4436C13.2401 26.1636 13.2301 25.9936 13.4201 25.7236C14.2901 24.4836 14.5901 23.0936 14.4701 21.5936C14.3701 20.3736 13.9101 19.2836 13.1901 18.3036C14.4401 16.6136 14.7701 14.7636 14.3201 12.7736C14.4201 12.7536 14.4601 12.7336 14.4901 12.7436C16.3901 13.1636 18.1501 12.8736 19.7701 11.7736C19.8901 11.6936 20.1701 11.7536 20.3201 11.8536C22.6901 13.3036 25.0601 13.3236 27.4101 11.8336C27.7001 11.6436 27.8701 11.6836 28.1301 11.8636C29.0001 12.4636 29.9701 12.8336 31.0301 12.8936C31.7801 12.9336 32.5301 12.8936 33.2801 12.8936C33.0301 15.6036 33.1501 16.2136 34.4301 18.3036C32.6901 20.9036 32.6901 23.5036 34.4401 26.1036C33.1501 27.8436 32.8601 29.7636 33.4101 31.9036C31.3201 31.4336 29.4301 31.7436 27.7601 33.0036C24.9201 30.9736 21.6301 31.4536 19.6101 33.3736C18.5601 34.3636 17.8701 35.5536 17.6601 36.9836C17.4001 38.7736 17.8301 40.4036 18.9101 41.8336C16.7701 44.7136 17.4301 48.4036 19.6201 50.3936C20.3701 51.0736 20.6201 52.0136 20.6101 53.0136C20.6101 54.3836 20.5901 55.7636 20.6101 57.1336C20.6201 57.6336 20.6801 58.1636 20.8501 58.6336C21.3701 60.0436 22.9001 60.9136 24.3301 60.6836C25.9501 60.4136 27.0801 59.1036 27.1101 57.3736C27.1401 55.9636 27.1401 54.5436 27.1101 53.1336C27.0801 51.9436 27.5001 50.9736 28.3401 50.1236C29.8101 48.6436 30.3101 46.8236 30.0701 44.7736C30.0401 44.5536 30.0001 44.3336 29.9501 44.0536C32.0201 44.4836 33.8601 44.1636 35.4101 43.0036L35.5401 42.9736Z" fill="#5377CD"/>
<path d="M33.3501 48.5136L43.5401 59.3136L61.9101 40.4236" stroke="#5377CD" stroke-width="2.4" stroke-linecap="round" stroke-linejoin="round"/>
</g>
<defs>
<clipPath id="clip0_50_20">
<rect width="64" height="64" fill="white" transform="translate(0 0.163574)"/>
</clipPath>
</defs>
</svg>
