<svg width="52" height="52" viewBox="0 0 52 52" fill="none" xmlns="http://www.w3.org/2000/svg">
<path d="M5.92325 51.6637C4.40775 51.6637 3.125 51.1387 2.075 50.0887C1.025 49.0387 0.5 47.7559 0.5 46.2404V6.08695C0.5 4.57145 1.025 3.2887 2.075 2.2387C3.125 1.1887 4.40775 0.663696 5.92325 0.663696H46.0768C47.5923 0.663696 48.875 1.1887 49.925 2.2387C50.975 3.2887 51.5 4.57145 51.5 6.08695V46.2404C51.5 47.7559 50.975 49.0387 49.925 50.0887C48.875 51.1387 47.5923 51.6637 46.0768 51.6637H5.92325ZM5 6.08695V46.2404C5 46.4714 5.09625 46.6829 5.28875 46.8749C5.48075 47.0674 5.69225 47.1637 5.92325 47.1637H46.0768C46.3078 47.1637 46.5193 47.0674 46.7113 46.8749C46.9038 46.6829 47 46.4714 47 46.2404V6.08695C47 5.85595 46.9038 5.64444 46.7113 5.45244C46.5193 5.25994 46.3078 5.1637 46.0768 5.1637H40.25V22.4714C40.25 23.0134 40.024 23.4124 39.572 23.6684C39.12 23.9239 38.6633 23.9114 38.2018 23.6309L34.9018 21.6119C34.4598 21.3309 33.9925 21.1904 33.5 21.1904C33.0075 21.1904 32.5403 21.3309 32.0983 21.6119L28.7983 23.6309C28.3368 23.9114 27.88 23.9239 27.428 23.6684C26.976 23.4124 26.75 23.0134 26.75 22.4714V5.1637H5.92325C5.69225 5.1637 5.48075 5.25994 5.28875 5.45244C5.09625 5.64444 5 5.85595 5 6.08695Z" fill="#5477CD"/>
</svg>
