<svg width="55" height="45" viewBox="0 0 55 45" fill="none" xmlns="http://www.w3.org/2000/svg">
<path d="M4.23601 17.9107C4.04134 17.2098 3.89779 16.5176 3.80534 15.834C3.7129 15.1509 3.66668 14.4447 3.66668 13.7153C3.66668 9.9309 4.94268 6.76956 7.49468 4.23134C10.0471 1.69267 13.2156 0.42334 17 0.42334C19.2836 0.42334 21.4725 0.972007 23.5667 2.06934C25.6609 3.16712 27.472 4.72445 29 6.74134C30.528 4.70712 32.328 3.14556 34.4 2.05667C36.472 0.967784 38.672 0.42334 41 0.42334C44.7502 0.42334 47.9016 1.67978 50.454 4.19267C53.006 6.70556 54.2991 9.83712 54.3333 13.5873V13.6693C53.6938 13.136 53.0133 12.6685 52.292 12.2667C51.5707 11.8653 50.7998 11.5296 49.9793 11.2593C49.4771 9.24912 48.4002 7.60712 46.7487 6.33334C45.0976 5.06001 43.1813 4.42334 41 4.42334C38.9862 4.42334 37.0947 5.00712 35.3253 6.17467C33.5565 7.34223 31.8822 9.10045 30.3027 11.4493H27.6973C26.1622 9.16179 24.488 7.4189 22.6747 6.22067C20.8609 5.02245 18.9693 4.42334 17 4.42334C14.3778 4.42334 12.1667 5.32334 10.3667 7.12334C8.56668 8.92334 7.66668 11.1207 7.66668 13.7153C7.66668 14.4509 7.73334 15.152 7.86668 15.8187C8.00001 16.4849 8.20845 17.1822 8.49201 17.9107H4.23601ZM23.226 40.4647C21.7696 39.1313 20.4362 37.904 19.226 36.7827C18.0158 35.6609 16.8891 34.6009 15.846 33.6027H21.6973C22.7782 34.564 23.9176 35.5976 25.1153 36.7033C26.3136 37.8091 27.6085 38.9911 29 40.2493C29.8751 39.4902 30.6905 38.7662 31.446 38.0773C32.2016 37.3885 32.9333 36.7122 33.6413 36.0487C34.1093 36.5487 34.6022 37.0071 35.12 37.424C35.6382 37.8405 36.1862 38.2282 36.764 38.5873C36.4391 38.8949 36.0973 39.2153 35.7387 39.5487C35.3796 39.8825 35.0033 40.2287 34.61 40.5873L31.7387 43.172C31.3605 43.5138 30.9309 43.7702 30.45 43.9413C29.9687 44.112 29.4873 44.1973 29.006 44.1973C28.5247 44.1973 28.0347 44.112 27.536 43.9413C27.0373 43.7702 26.5989 43.5138 26.2207 43.172L23.226 40.4647ZM43 25.962V17.7567C43 17.19 43.1918 16.7151 43.5753 16.332C43.9589 15.9485 44.434 15.7567 45.0007 15.7567C45.5678 15.7567 46.0427 15.9485 46.4253 16.332C46.8085 16.7151 47 17.19 47 17.7567V25.962C47 26.5287 46.8082 27.0036 46.4247 27.3867C46.0411 27.7702 45.566 27.962 44.9993 27.962C44.4322 27.962 43.9573 27.7702 43.5747 27.3867C43.1916 27.0036 43 26.5287 43 25.962ZM2.84601 27.7567C2.27934 27.7567 1.80445 27.5649 1.42134 27.1813C1.03779 26.7978 0.846008 26.3227 0.846008 25.756C0.846008 25.1889 1.03779 24.714 1.42134 24.3313C1.80445 23.9482 2.27934 23.7567 2.84601 23.7567H12.4053L16.8927 17.1207C17.1367 16.7571 17.4318 16.4945 17.778 16.3327C18.1242 16.1709 18.494 16.09 18.8873 16.09C19.2802 16.09 19.6487 16.1771 19.9927 16.3513C20.3362 16.526 20.6327 16.7962 20.882 17.162L25.2873 23.7567H29.8567C29.802 24.0985 29.7567 24.4271 29.7207 24.7427C29.6847 25.0578 29.6667 25.3978 29.6667 25.7627C29.6667 26.128 29.6847 26.4662 29.7207 26.7773C29.7567 27.0885 29.802 27.4149 29.8567 27.7567H24.41C23.9998 27.7567 23.6205 27.6585 23.272 27.462C22.9231 27.2651 22.6376 27.006 22.4153 26.6847L18.846 21.3513L15.2767 26.6847C15.0545 27.006 14.7691 27.2651 14.4207 27.462C14.0718 27.6585 13.6922 27.7567 13.282 27.7567H2.84601ZM45.0007 35.808C44.3473 35.808 43.7993 35.5869 43.3567 35.1447C42.914 34.7025 42.6927 34.1547 42.6927 33.5013C42.6927 32.8476 42.9136 32.2993 43.3553 31.8567C43.7976 31.414 44.3456 31.1927 44.9993 31.1927C45.6527 31.1927 46.2007 31.4138 46.6433 31.856C47.086 32.2978 47.3073 32.8456 47.3073 33.4993C47.3073 34.1531 47.0865 34.7013 46.6447 35.144C46.2025 35.5867 45.6545 35.808 45.0007 35.808Z" fill="#5477CD"/>
</svg>
