<svg width="38" height="39" viewBox="0 0 38 39" fill="none" xmlns="http://www.w3.org/2000/svg">
<path d="M1.00696 31.6049C1.22957 30.958 1.40349 30.2832 1.70262 29.6779C1.92524 29.2258 2.28699 28.8292 2.64873 28.4675C8.59669 22.4987 14.5516 16.5437 20.5065 10.5888C20.6039 10.4914 20.7431 10.4288 20.9309 10.3036C20.5691 9.96967 20.2909 9.73314 20.0335 9.4827C19.63 9.07226 19.623 8.6966 20.0196 8.29311C22.2944 6.01132 24.5692 3.73648 26.851 1.46165C27.2545 1.05816 27.6371 1.06512 28.0476 1.47556C30.9346 4.35563 33.8147 7.23569 36.6947 10.1227C37.0982 10.5262 37.1052 10.9088 36.6947 11.3193C34.4199 13.6011 32.1451 15.8828 29.8633 18.1577C29.4598 18.5612 29.0841 18.5473 28.6737 18.1368C28.4163 17.8794 28.1867 17.6081 27.8597 17.2533C27.7415 17.4272 27.6858 17.5525 27.5954 17.6429C21.6544 23.5839 15.7134 29.5179 9.77933 35.4589C8.90279 36.3424 7.90103 36.9616 6.64882 37.1146C6.61404 37.1146 6.58621 37.1494 6.55839 37.1633H5.43141C5.37575 37.1425 5.32706 37.1146 5.2714 37.1007C3.69224 36.8572 2.46786 36.0503 1.69567 34.6589C1.3687 34.0676 1.22957 33.3789 1 32.7319C1 32.3563 1 31.9806 1 31.6049H1.00696ZM9.73759 23.41C9.73759 23.41 9.66107 23.4726 9.62628 23.5143C7.59493 25.5457 5.56358 27.5701 3.54614 29.6084C3.24701 29.9075 3.00352 30.2832 2.80178 30.6588C1.86263 32.4606 2.88526 34.8955 4.81922 35.5076C6.27316 35.9668 7.54624 35.6398 8.61756 34.5685C9.78629 33.4137 10.9411 32.2519 12.0959 31.0901C12.9933 30.1927 13.8838 29.3023 14.7603 28.4257C13.0838 26.7492 11.4211 25.0865 9.73063 23.3961L9.73759 23.41ZM18.2108 14.9993C15.7482 17.4551 13.2855 19.9038 10.8576 22.3247C12.5203 23.9874 14.1829 25.657 15.8386 27.3127C18.2734 24.8778 20.7291 22.4152 23.1779 19.9664C21.5292 18.3177 19.8665 16.655 18.2108 14.9993ZM31.2268 14.6237C32.7433 13.128 33.6894 12.2028 35.1712 10.7349C32.5903 8.15397 29.9885 5.55913 27.4145 2.9782C25.9327 4.47389 25.0145 5.40609 23.5188 6.91569C26.0858 9.4827 28.6876 12.0775 31.2268 14.6167V14.6237ZM19.2822 13.9211C20.9239 15.5628 22.5935 17.2324 24.2284 18.8673C25.0701 18.0185 25.9397 17.142 26.7815 16.2863C25.1536 14.6515 23.4909 12.9889 21.8422 11.3401C20.9865 12.2028 20.1239 13.0723 19.2752 13.9211H19.2822ZM21.4874 8.82877C24.1101 11.4514 26.7188 14.0532 29.2859 16.6272C29.3902 16.5576 30.1137 15.8759 30.1902 15.8202C27.5536 13.1837 24.9588 10.5888 22.3431 7.9731C22.2666 8.04962 21.5709 8.75225 21.4874 8.83573V8.82877Z" fill="#5477CD"/>
<path d="M13.5916 28.7455C13.522 28.8637 13.4524 29.0724 13.3063 29.2116C12.1376 30.3942 10.9689 31.5699 9.78625 32.7386C9.43146 33.0934 8.99319 33.1073 8.69405 32.8012C8.40187 32.5021 8.4297 32.0708 8.78449 31.716C9.94625 30.5472 11.115 29.3855 12.2837 28.2168C12.5272 27.9733 12.8124 27.855 13.1394 27.9941C13.4246 28.1124 13.5568 28.3559 13.5846 28.7455H13.5916Z" fill="#5477CD"/>
<path d="M29.7451 12.5018C29.7938 12.4253 29.8564 12.2583 29.9747 12.1401C30.7677 11.3331 31.5747 10.5331 32.3817 9.74003C32.6669 9.46176 33.0148 9.44089 33.2582 9.67742C33.4948 9.91394 33.4809 10.2618 33.1956 10.547C32.3956 11.347 31.5886 12.147 30.7886 12.9471C30.5938 13.1418 30.3712 13.2392 30.0999 13.1279C29.8703 13.0305 29.7521 12.8566 29.7521 12.5088L29.7451 12.5018Z" fill="#5477CD"/>
<path d="M25.9535 8.42554C25.4526 8.42554 25.1813 7.95945 25.397 7.59074C25.4457 7.5003 25.5152 7.42378 25.5918 7.35421C26.3639 6.58202 27.1431 5.80983 27.9222 5.03764C27.9918 4.96807 28.0753 4.89851 28.1657 4.84981C28.3814 4.72459 28.6596 4.76633 28.8405 4.9472C29.0144 5.12112 29.0492 5.40634 28.924 5.622C28.917 5.63591 28.9031 5.65678 28.8892 5.6707C27.9918 6.56115 27.1014 7.45161 26.197 8.33511C26.1274 8.40467 25.9952 8.41859 25.9535 8.43946V8.42554Z" fill="#5477CD"/>
<path d="M31.2546 7.47893C31.1293 7.68067 31.0598 7.85459 30.9415 7.97285C30.1484 8.77983 29.3415 9.57984 28.5345 10.3729C28.2423 10.6581 27.9014 10.672 27.6579 10.4286C27.4214 10.192 27.4423 9.85115 27.7275 9.55897C28.5275 8.75895 29.3345 7.95894 30.1345 7.15892C30.3363 6.95717 30.5867 6.84587 30.8441 6.99891C31.0111 7.09631 31.1085 7.29805 31.2546 7.47197V7.47893Z" fill="#5477CD"/>
</svg>
