<svg width="34" height="39" viewBox="0 0 34 39" fill="none" xmlns="http://www.w3.org/2000/svg">
<path d="M5 38.1635C3.60267 38.1635 2.42 37.6795 1.452 36.7115C0.484 35.7435 0 34.5608 0 33.1635V29.9715C0 29.4558 0.1725 29.0257 0.5175 28.681C0.862167 28.336 1.29233 28.1635 1.808 28.1635H6V1.53651C6 1.32884 6.084 1.18984 6.252 1.11951C6.42 1.04884 6.58083 1.07767 6.7345 1.20601L8.204 2.42501C8.37833 2.57367 8.56683 2.64801 8.7695 2.64801C8.97183 2.64801 9.16017 2.57367 9.3345 2.42501L11.0115 1.05601C11.1858 0.907339 11.3743 0.833008 11.577 0.833008C11.7797 0.833008 11.9682 0.907339 12.1425 1.05601L13.8195 2.42501C13.9938 2.57367 14.1822 2.64801 14.3845 2.64801C14.5872 2.64801 14.7757 2.57367 14.95 2.42501L16.627 1.05601C16.8013 0.907339 16.9898 0.833008 17.1925 0.833008C17.3948 0.833008 17.5832 0.907339 17.7575 1.05601L19.4345 2.42501C19.6088 2.57367 19.7973 2.64801 20 2.64801C20.2027 2.64801 20.3912 2.57367 20.5655 2.42501L22.2425 1.05601C22.4168 0.907339 22.6052 0.833008 22.8075 0.833008C23.0102 0.833008 23.1987 0.907339 23.373 1.05601L25.05 2.42501C25.2243 2.57367 25.4128 2.64801 25.6155 2.64801C25.8178 2.64801 26.0062 2.57367 26.1805 2.42501L27.8575 1.05601C28.0318 0.907339 28.2203 0.833008 28.423 0.833008C28.6257 0.833008 28.8142 0.907339 28.9885 1.05601L30.6655 2.42501C30.8398 2.57367 31.0282 2.64801 31.2305 2.64801C31.4332 2.64801 31.6217 2.57367 31.796 2.42501L33.2655 1.20601C33.4192 1.07767 33.58 1.04884 33.748 1.11951C33.916 1.18984 34 1.32884 34 1.53651V33.1635C34 34.5608 33.516 35.7435 32.548 36.7115C31.58 37.6795 30.3973 38.1635 29 38.1635H5ZM29 35.1635C29.5667 35.1635 30.0417 34.9718 30.425 34.5885C30.8083 34.2052 31 33.7302 31 33.1635V5.16351H9V28.1635H25.1925C25.7078 28.1635 26.1378 28.336 26.4825 28.681C26.8275 29.0257 27 29.4558 27 29.9715V33.1635C27 33.7302 27.1917 34.2052 27.575 34.5885C27.9583 34.9718 28.4333 35.1635 29 35.1635ZM12.8845 9.66351H21.231C21.6563 9.66351 22.0127 9.80717 22.3 10.0945C22.587 10.3815 22.7305 10.7378 22.7305 11.1635C22.7305 11.5892 22.587 11.9455 22.3 12.2325C22.0127 12.5198 21.6563 12.6635 21.231 12.6635H12.8845C12.4588 12.6635 12.1025 12.5198 11.8155 12.2325C11.5282 11.9455 11.3845 11.5892 11.3845 11.1635C11.3845 10.7378 11.5282 10.3815 11.8155 10.0945C12.1025 9.80717 12.4588 9.66351 12.8845 9.66351ZM12.8845 15.6635H21.231C21.6563 15.6635 22.0127 15.8072 22.3 16.0945C22.587 16.3815 22.7305 16.7378 22.7305 17.1635C22.7305 17.5892 22.587 17.9455 22.3 18.2325C22.0127 18.5198 21.6563 18.6635 21.231 18.6635H12.8845C12.4588 18.6635 12.1025 18.5198 11.8155 18.2325C11.5282 17.9455 11.3845 17.5892 11.3845 17.1635C11.3845 16.7378 11.5282 16.3815 11.8155 16.0945C12.1025 15.8072 12.4588 15.6635 12.8845 15.6635ZM26.8845 12.9325C26.3948 12.9325 25.9775 12.7602 25.6325 12.4155C25.2878 12.0705 25.1155 11.6532 25.1155 11.1635C25.1155 10.6738 25.2878 10.2565 25.6325 9.91151C25.9775 9.56684 26.3948 9.39451 26.8845 9.39451C27.3742 9.39451 27.7915 9.56684 28.1365 9.91151C28.4815 10.2565 28.654 10.6738 28.654 11.1635C28.654 11.6532 28.4815 12.0705 28.1365 12.4155C27.7915 12.7602 27.3742 12.9325 26.8845 12.9325ZM26.8845 18.9325C26.3948 18.9325 25.9775 18.7602 25.6325 18.4155C25.2878 18.0705 25.1155 17.6532 25.1155 17.1635C25.1155 16.6738 25.2878 16.2565 25.6325 15.9115C25.9775 15.5668 26.3948 15.3945 26.8845 15.3945C27.3742 15.3945 27.7915 15.5668 28.1365 15.9115C28.4815 16.2565 28.654 16.6738 28.654 17.1635C28.654 17.6532 28.4815 18.0705 28.1365 18.4155C27.7915 18.7602 27.3742 18.9325 26.8845 18.9325ZM5 35.1635H24V31.1635H3V33.1635C3 33.7302 3.19167 34.2052 3.575 34.5885C3.95833 34.9718 4.43333 35.1635 5 35.1635Z" fill="#5477CD"/>
</svg>
