<svg width="34" height="36" viewBox="0 0 34 36" fill="none" xmlns="http://www.w3.org/2000/svg">
<path d="M30.3949 0.163574H6.98517C5.68253 0.163574 4.37989 0.163574 3.05837 0.163574C1.37815 0.163574 0.0377577 1.41095 0 2.98852C0 4.67615 0 6.36378 0 8.06976V10.9681C0 11.7018 0.434213 12.1237 1.22712 12.1421C1.43479 12.1421 1.64246 12.1421 1.85013 12.1421C1.85013 12.1788 1.85013 12.1971 1.85013 12.2338L3.02061 32.7972C3.09613 34.2097 4.13446 35.1636 5.58813 35.1636H28.1861C29.6398 35.1636 30.6781 34.2097 30.7725 32.8156C30.9235 30.3575 31.0746 27.8811 31.2067 25.423L31.8297 14.2149C31.8675 13.6646 31.8863 13.1327 31.9241 12.564V12.1421H32.245C32.7359 12.1421 33.1701 12.1421 33.4533 11.8486C33.7553 11.5551 33.7742 11.1515 33.7742 10.6562V3.46546C33.7931 1.33758 32.5849 0.163574 30.3949 0.163574ZM28.6769 32.2102C28.6769 32.3937 28.6769 32.5771 28.6203 32.7605C28.5637 33.0357 28.4504 33.0907 28.2616 33.0724C28.0351 33.0724 27.8274 33.0724 27.6008 33.0724C28.0539 31.4948 27.4687 29.9172 26.0905 29.0184C25.9206 28.9083 25.9018 28.89 25.9395 28.6699C26.2982 26.8355 25.2976 25.1112 23.5797 24.5975C23.221 23.5153 22.3714 22.9649 21.654 22.6531C21.8428 20.9655 21.2009 19.4062 19.7095 17.9204C19.3508 17.5719 18.9166 17.26 18.4257 17.0215C18.0482 16.8381 17.5007 16.8564 17.1609 17.0582C16.7833 17.2967 16.7266 17.8837 16.7833 18.1955C16.8966 18.8559 16.6889 19.3879 16.1225 19.7364C15.5939 20.085 14.952 20.3968 14.1402 20.7086C13.1208 21.0939 12.0636 21.4974 11.214 22.3046C10.4777 22.9833 10.1191 23.7537 10.1002 24.6342C8.32556 25.423 7.55153 26.8171 7.87247 28.6515C7.91023 28.8716 7.91023 28.8716 7.7592 28.9634C6.36216 29.8622 5.77692 31.4398 6.23001 33.0357C5.92795 33.0357 5.66365 33.0357 5.39934 33.0173C5.28607 33.0173 5.1728 32.999 5.15392 32.467C5.09728 31.5865 5.05953 30.706 5.00289 29.8255L4.00231 12.3439C4.00231 12.3439 4.00231 12.1971 4.00231 12.1421H29.8474L29.3566 20.5619L28.6958 32.1735L28.6769 32.2102ZM8.26893 31.5865C8.41996 31.1279 8.77865 30.7427 9.28838 30.5409C10.3456 30.119 10.4777 29.8072 10.1002 28.7799C9.87363 28.1379 9.91138 27.4775 10.2323 27.0556C10.4777 26.7254 10.8931 26.542 11.4028 26.542H11.4406C12.0447 26.5236 12.3279 26.2668 12.4411 26.0834C12.6488 25.7715 12.6299 25.368 12.4411 24.9644C12.1391 24.3774 12.2335 24.2307 12.5544 23.9922C13.1774 23.5153 13.9137 23.1484 14.6311 22.7815C14.952 22.6164 15.2918 22.488 15.6317 22.3412C16.047 22.1762 16.4812 21.9927 16.8965 21.7726C17.6895 21.3323 18.2747 20.7086 18.6523 19.9015C19.3886 20.6903 19.6717 21.9193 19.2564 22.7632C19.0865 23.0933 19.0676 23.4419 19.1998 23.7354C19.3319 24.0289 19.6151 24.2673 19.9927 24.3591C20.106 24.3958 20.2192 24.4141 20.3325 24.4508C20.5402 24.5058 20.729 24.5425 20.9366 24.6342C21.3331 24.7993 21.5219 25.0561 21.5407 25.4414C21.5974 26.4136 22.3337 26.5236 22.5413 26.542C23.0322 26.5603 23.3909 26.7438 23.5985 27.074C23.8817 27.4959 23.9384 28.1746 23.7118 28.7616C23.3154 29.8255 23.4664 30.119 24.5614 30.5593C25.0333 30.7427 25.392 31.1279 25.5242 31.5865C25.6563 32.0451 25.5808 32.5221 25.2976 32.9073C25.2599 32.9623 25.1088 33.054 25.0333 33.054C19.6151 33.054 14.178 33.0724 8.75978 33.054C8.68426 33.054 8.53323 32.9623 8.47659 32.8706C8.21229 32.4854 8.13677 32.0268 8.26893 31.5865ZM2.13331 8.65676C2.13331 6.87741 2.13331 5.09806 2.13331 3.31871C2.13331 2.56661 2.45425 2.25477 3.22828 2.25477H30.4893C31.3577 2.25477 31.6598 2.54827 31.6598 3.41043C31.6598 5.55666 31.6598 7.72123 31.6598 9.86745C31.6598 9.90414 31.6598 9.94083 31.6598 9.99586H2.13331V8.65676Z" fill="#5477CD"/>
<path d="M16.8967 9.37206H16.9156C17.2932 9.37206 17.9162 9.20697 17.9162 8.2164V4.10739C17.9162 3.83223 17.8784 3.44701 17.5953 3.17185C17.4065 2.98841 17.1422 2.93338 16.859 2.91504C16.5569 2.91504 15.8584 3.04345 15.8584 4.08904C15.8584 5.46483 15.8584 6.82227 15.8584 8.19806C15.8584 8.5099 15.8962 8.87678 16.1605 9.11525C16.3304 9.28034 16.5758 9.37206 16.8779 9.37206H16.8967Z" fill="#5477CD"/>
<path d="M20.1627 9.11532C20.2949 9.22538 20.5026 9.37213 20.8613 9.37213H20.899C21.1256 9.37213 21.8996 9.26207 21.8996 8.25316C21.8996 7.75787 21.8996 7.26259 21.8996 6.74896V5.53827C21.8996 5.04299 21.8996 4.5477 21.8996 4.03408C21.8996 3.64886 21.8052 3.35536 21.5975 3.15358C21.4654 3.02517 21.2388 2.87842 20.8613 2.87842C20.3704 2.87842 19.8418 3.17192 19.8418 3.99739C19.8418 5.40986 19.8418 6.84068 19.8418 8.25316C19.8418 8.62003 19.9362 8.89519 20.1439 9.09697L20.1627 9.11532Z" fill="#5477CD"/>
<path d="M4.98419 9.37216C5.28625 9.37216 5.98477 9.2621 5.98477 8.25319V4.05245C5.98477 3.9057 5.98477 3.46545 5.6827 3.17195C5.55055 3.04354 5.30513 2.89679 4.94643 2.91514C4.64437 2.91514 3.94585 3.04354 3.96473 4.03411C3.96473 5.42824 3.96473 6.84071 3.96473 8.23484C3.96473 8.49166 3.98361 8.85853 4.26679 9.11535C4.4367 9.28044 4.68213 9.37216 4.98419 9.37216Z" fill="#5477CD"/>
<path d="M24.8443 9.39062C25.2219 9.39062 25.4485 9.24387 25.5617 9.1338C25.7694 8.95037 25.8638 8.65686 25.8638 8.30833V3.99753C25.8638 3.3555 25.4862 2.95194 24.8821 2.93359C24.5045 2.93359 24.278 3.062 24.1458 3.19041C24.0137 3.31881 23.8438 3.55728 23.8438 3.97919C23.8438 5.42835 23.8438 6.87751 23.8438 8.34502C23.8438 9.35393 24.6178 9.39062 24.8443 9.40896V9.39062Z" fill="#5477CD"/>
<path d="M8.94856 9.3721C9.30726 9.3721 9.5338 9.22535 9.64708 9.11528C9.85474 8.9135 9.94914 8.63834 9.94914 8.27147C9.94914 6.85899 9.94914 5.44652 9.94914 4.0157C9.94914 3.00679 9.25062 2.89673 8.94856 2.89673C8.6465 2.89673 8.40107 2.98845 8.23116 3.17189C7.96686 3.4287 7.9291 3.79558 7.94798 4.05239C7.94798 4.52933 7.94798 5.00627 7.94798 5.48321V6.1069V6.74893C7.94798 7.24421 7.94798 7.7395 7.94798 8.25312C7.94798 9.24369 8.6465 9.3721 8.94856 9.3721Z" fill="#5477CD"/>
<path d="M28.8281 9.37226C29.0735 9.37226 29.8475 9.28054 29.8286 8.25329C29.8286 7.81304 29.8286 7.37279 29.8286 6.91419V5.50172C29.8286 5.00643 29.8286 4.49281 29.8286 3.99752C29.8286 3.63065 29.7342 3.35549 29.5454 3.15371C29.4322 3.0253 29.2056 2.89689 28.8281 2.87855C28.4882 2.84186 28.2428 3.0253 28.1107 3.13536C27.903 3.33715 27.8086 3.6123 27.8086 3.97918V8.23495C27.8086 8.3817 27.8086 8.8036 28.1107 9.07876C28.2239 9.18882 28.4505 9.33557 28.8281 9.33557V9.37226Z" fill="#5477CD"/>
<path d="M12.913 9.39041C13.2717 9.39041 13.4983 9.24366 13.6304 9.13359C13.8192 8.95015 13.9325 8.675 13.9325 8.34481C13.9325 6.89565 13.9325 5.44649 13.9325 3.97898C13.9325 3.33695 13.536 2.91504 12.913 2.91504C12.5354 2.91504 12.3089 3.06179 12.1956 3.1902C11.9879 3.39198 11.8936 3.66714 11.8936 4.03401C11.8936 4.58433 11.8936 5.1163 11.8936 5.66661V8.34481C11.8936 9.11525 12.4033 9.39041 12.8941 9.40875L12.913 9.39041Z" fill="#5477CD"/>
</svg>
