<svg width="28" height="40" viewBox="0 0 28 40" fill="none" xmlns="http://www.w3.org/2000/svg">
<path d="M14.0002 39.9554C11.3054 39.9554 9.00902 39.0165 7.1111 37.1387C5.21353 35.2613 4.26475 32.9816 4.26475 30.2997V11.47C3.21231 11.47 2.31492 11.1019 1.57256 10.3658C0.82985 9.63006 0.458496 8.73596 0.458496 7.68353V4.17832C0.458496 3.12589 0.82985 2.22849 1.57256 1.48613C2.31492 0.743425 3.21231 0.37207 4.26475 0.37207H23.7158C24.7679 0.37207 25.6686 0.743425 26.4179 1.48613C27.1672 2.22849 27.5418 3.12589 27.5418 4.17832V7.68353C27.5418 8.73596 27.1672 9.63006 26.4179 10.3658C25.6686 11.1019 24.7679 11.47 23.7158 11.47V30.6002C23.6356 33.2151 22.6533 35.4281 20.7689 37.2393C18.8845 39.05 16.6283 39.9554 14.0002 39.9554ZM4.26475 8.34499H23.7158C23.9026 8.34499 24.0661 8.28144 24.2064 8.15436C24.3467 8.02762 24.4168 7.87068 24.4168 7.68353V4.17832C24.4168 3.99117 24.3467 3.83092 24.2064 3.69759C24.0661 3.56391 23.9026 3.49707 23.7158 3.49707H4.26475C4.07759 3.49707 3.91735 3.56391 3.78402 3.69759C3.65034 3.83092 3.5835 3.99117 3.5835 4.17832V7.68353C3.5835 7.87068 3.65034 8.02762 3.78402 8.15436C3.91735 8.28144 4.07759 8.34499 4.26475 8.34499ZM14.0002 36.8304C15.8297 36.8304 17.3856 36.1993 18.6679 34.9372C19.9498 33.6754 20.5908 32.1295 20.5908 30.2997V29.5184H15.7028C15.2594 29.5184 14.8882 29.3689 14.5892 29.07C14.2899 28.7707 14.1403 28.3993 14.1403 27.9559C14.1403 27.5129 14.2899 27.1417 14.5892 26.8424C14.8882 26.5434 15.2594 26.3939 15.7028 26.3939H20.5908V21.3455H15.7028C15.2594 21.3455 14.8882 21.196 14.5892 20.8971C14.2899 20.5978 14.1403 20.2264 14.1403 19.783C14.1403 19.3396 14.2899 18.9684 14.5892 18.6695C14.8882 18.3702 15.2594 18.2205 15.7028 18.2205H20.5908V11.47H7.38975V30.2997C7.38975 32.1295 8.03402 33.6754 9.32256 34.9372C10.6114 36.1993 12.1706 36.8304 14.0002 36.8304Z" fill="#5477CD"/>
</svg>
