<svg width="32" height="36" viewBox="0 0 32 36" fill="none" xmlns="http://www.w3.org/2000/svg">
<path d="M6.22448 35.8721C5.18559 35.8721 4.29809 35.5042 3.56198 34.7684C2.82622 34.0323 2.45833 33.1448 2.45833 32.1059V5.66375H1.9375C1.4941 5.66375 1.12292 5.5141 0.823958 5.21479C0.524653 4.91584 0.375 4.54466 0.375 4.10125C0.375 3.65785 0.524653 3.28667 0.823958 2.98771C1.12292 2.68841 1.4941 2.53875 1.9375 2.53875H9.75C9.75 2.02868 9.92969 1.59396 10.2891 1.23459C10.6481 0.87556 11.0826 0.696045 11.5927 0.696045H20.4073C20.9174 0.696045 21.3519 0.87556 21.7109 1.23459C22.0703 1.59396 22.25 2.02868 22.25 2.53875H30.0625C30.5059 2.53875 30.8771 2.68841 31.176 2.98771C31.4753 3.28667 31.625 3.65785 31.625 4.10125C31.625 4.54466 31.4753 4.91584 31.176 5.21479C30.8771 5.5141 30.5059 5.66375 30.0625 5.66375H29.5417V32.1059C29.5417 33.1448 29.1738 34.0323 28.438 34.7684C27.7019 35.5042 26.8144 35.8721 25.7755 35.8721H6.22448ZM26.4167 5.66375H5.58333V32.1059C5.58333 32.2931 5.6434 32.4467 5.76354 32.5669C5.88368 32.687 6.03733 32.7471 6.22448 32.7471H25.7755C25.9627 32.7471 26.1163 32.687 26.2365 32.5669C26.3566 32.4467 26.4167 32.2931 26.4167 32.1059V5.66375ZM16 21.4007L20.3187 25.72C20.6073 26.0082 20.97 26.1558 21.4068 26.1627C21.8432 26.1693 22.2125 26.0217 22.5146 25.72C22.8163 25.4179 22.9672 25.0519 22.9672 24.6221C22.9672 24.1922 22.8163 23.8263 22.5146 23.5242L18.1953 19.2054L22.5146 14.8867C22.8028 14.5981 22.9503 14.2355 22.9573 13.7986C22.9639 13.3622 22.8163 12.9929 22.5146 12.6908C22.2125 12.3891 21.8465 12.2382 21.4167 12.2382C20.9868 12.2382 20.6208 12.3891 20.3187 12.6908L16 17.0101L11.6812 12.6908C11.3927 12.4026 11.03 12.2551 10.5932 12.2481C10.1568 12.2415 9.7875 12.3891 9.48542 12.6908C9.18368 12.9929 9.03281 13.3589 9.03281 13.7888C9.03281 14.2186 9.18368 14.5846 9.48542 14.8867L13.8047 19.2054L9.48542 23.5242C9.19722 23.8127 9.04965 24.1754 9.04271 24.6122C9.03611 25.0486 9.18368 25.4179 9.48542 25.72C9.7875 26.0217 10.1535 26.1726 10.5833 26.1726C11.0132 26.1726 11.3792 26.0217 11.6812 25.72L16 21.4007Z" fill="#5477CD"/>
</svg>
