<svg width="31" height="36" viewBox="0 0 31 36" fill="none" xmlns="http://www.w3.org/2000/svg">
<g clip-path="url(#clip0_50_114)">
<path d="M15.3623 4.27345C15.18 4.14087 14.948 4.10773 14.6829 4.1243C14.4177 4.15744 13.8211 4.35631 13.9371 5.28434C14.0863 6.51066 14.2354 7.73699 14.3846 8.96331C14.4177 9.24504 14.484 9.5599 14.7492 9.75877C14.9315 9.89134 15.1469 9.94106 15.4121 9.90792C15.4121 9.90792 15.4121 9.90792 15.4286 9.90792C15.7601 9.8582 16.2738 9.65934 16.1744 8.74788L15.7103 5.0689C15.6772 4.82032 15.6109 4.48888 15.3458 4.27345H15.3623Z" fill="#5477CD"/>
<path d="M19.3729 5.94729C19.3232 5.49985 19.2569 5.05241 19.2072 4.60496C19.174 4.25695 19.0414 4.00837 18.8426 3.84265C18.71 3.74322 18.5111 3.62722 18.1797 3.67693C17.7488 3.72665 17.3345 4.05809 17.4174 4.78725C17.5665 6.0633 17.7323 7.33934 17.898 8.59881C17.9311 8.93025 18.0637 9.16225 18.2626 9.3114C18.3786 9.41083 18.594 9.51027 18.9089 9.46055C18.9089 9.46055 18.9254 9.46055 18.942 9.46055C19.1409 9.42741 19.8038 9.26169 19.6878 8.35023C19.6215 7.90278 19.5717 7.45534 19.522 7.0079L19.3895 5.93072L19.3729 5.94729Z" fill="#5477CD"/>
<path d="M4.97164 5.54958C4.85564 5.45015 4.60706 5.35071 4.30877 5.40043C4.04361 5.43357 3.4636 5.61587 3.5796 6.51075C3.74532 7.77022 3.89447 9.02969 4.04361 10.2726C4.07676 10.5046 4.14305 10.8195 4.39163 11.0349C4.57392 11.1675 4.78935 11.2172 5.0545 11.184C5.31966 11.1509 5.91625 10.9686 5.80024 10.0737L5.33623 6.31189C5.33623 6.17931 5.26994 5.78159 4.97164 5.54958Z" fill="#5477CD"/>
<path d="M21.6764 3.246C21.3615 3.29572 21.1626 3.42829 21.0632 3.54429C20.9638 3.67687 20.8312 3.90888 20.8809 4.29003C21.0466 5.59922 21.1958 6.89183 21.3615 8.20102C21.4775 9.0959 22.1404 9.06276 22.3558 9.04619C22.6873 9.01304 22.8695 8.84732 22.9524 8.73132C23.1016 8.53246 23.1678 8.28388 23.1181 7.95244L22.6375 4.09117C22.5713 3.51115 22.1901 3.19628 21.6598 3.22943L21.6764 3.246Z" fill="#5477CD"/>
<path d="M7.80554 4.96948C7.54039 5.00263 7.34153 5.10206 7.20895 5.28435C7.01009 5.5495 7.02666 5.88094 7.05981 6.11295C7.10952 6.54382 7.17581 6.97469 7.22553 7.38899L7.29181 7.93587L7.3581 8.51589C7.40782 8.96333 7.4741 9.41077 7.52382 9.85822C7.62325 10.7531 8.25299 10.7862 8.51814 10.7531C8.51814 10.7531 8.51814 10.7531 8.53471 10.7531C8.84958 10.72 9.03187 10.5708 9.11473 10.4548C9.26388 10.2559 9.33016 10.0074 9.28045 9.65935C9.11473 8.38331 8.96558 7.12384 8.81643 5.8478C8.70043 4.95291 8.08727 4.91977 7.82212 4.95291L7.80554 4.96948Z" fill="#5477CD"/>
<path d="M26.2668 5.06891C26.2171 4.62147 26.1508 4.17403 26.1011 3.72658C26.0679 3.39514 25.9519 3.14656 25.7531 2.99742C25.6371 2.89798 25.4216 2.79855 25.1068 2.8317C24.8085 2.8317 24.6096 3.01399 24.5102 3.14656C24.361 3.34543 24.2947 3.61058 24.3444 3.94202L24.8085 7.75357C24.8085 7.88615 24.8748 8.2673 25.1565 8.48274C25.2725 8.58217 25.4879 8.6816 25.8028 8.63189C26.0016 8.59874 26.6811 8.43302 26.5485 7.52156C26.4988 7.12384 26.4491 6.72611 26.3994 6.32838L26.2337 5.06891H26.2668Z" fill="#5477CD"/>
<path d="M11.2526 4.53862C10.9212 4.58833 10.7389 4.73748 10.656 4.85349C10.5069 5.05235 10.4571 5.3175 10.4903 5.63237C10.5566 6.11295 10.6063 6.61011 10.6726 7.0907L10.9709 9.49364C11.0537 10.1897 11.5343 10.3885 11.9652 10.3388C12.2801 10.3057 12.4623 10.1565 12.5452 10.0239C12.6944 9.84165 12.7441 9.59307 12.7109 9.2782C12.5452 7.96902 12.3961 6.6764 12.2303 5.36722C12.1641 4.7872 11.7663 4.45576 11.236 4.52205L11.2526 4.53862Z" fill="#5477CD"/>
<path d="M30.2938 9.22856L29.4983 2.78207C29.2663 0.876291 28.0897 -0.0351678 26.1839 0.19684L5.78382 2.71578C4.64036 2.84835 3.49689 2.9975 2.37 3.14665C0.878521 3.32894 -0.148941 4.58841 0.000206243 5.99703C0.165926 7.52165 0.36479 9.0297 0.547081 10.5543L0.861949 13.1561C0.944808 13.8024 1.37568 14.1504 2.05513 14.0841C2.23742 14.0676 2.40314 14.051 2.60201 14.0179C2.60201 14.051 28.852 10.7698 28.852 10.7698L29.1006 10.7366C29.5315 10.6869 29.896 10.6206 30.128 10.3389C30.3601 10.0572 30.3269 9.67601 30.2772 9.24513L30.2938 9.22856ZM2.63515 12.0624L2.486 10.8692C2.28714 9.27828 2.08827 7.6708 1.88941 6.07989C1.80655 5.40044 2.05513 5.10214 2.73458 5.01928L26.4822 2.08604C27.2445 1.98661 27.5262 2.21862 27.6257 2.9975C27.8577 4.91985 28.1063 6.85877 28.3383 8.78112C28.3383 8.81426 28.3383 8.84741 28.3383 8.89712L2.63515 12.0624Z" fill="#5477CD"/>
<path d="M3.24854 17.266L4.12685 33.0259C4.19314 34.3019 5.1046 35.1637 6.38064 35.1637H26.2173C27.4933 35.1637 28.4048 34.3019 28.4876 33.0425C28.6202 30.8218 28.7528 28.5846 28.8688 26.364L29.366 17.2825V15.1282H3.24854V17.2825V17.266ZM23.6818 33.1253C23.6818 33.1253 23.5161 33.2579 23.4498 33.2579C18.6936 33.2579 13.9209 33.2745 9.16473 33.2579C9.09844 33.2579 8.96586 33.1751 8.91615 33.0922C8.68414 32.7442 8.61785 32.3299 8.73386 31.9322C8.86643 31.5179 9.1813 31.1698 9.62874 30.9876C10.5568 30.6064 10.6728 30.3247 10.3413 29.3966C10.1425 28.8166 10.1756 28.22 10.4573 27.8389C10.6728 27.5406 11.0374 27.3749 11.4848 27.3749H11.5179C12.0483 27.3583 12.2968 27.1263 12.3963 26.9606C12.5786 26.6788 12.562 26.3143 12.3963 25.9497C12.1311 25.4194 12.214 25.2868 12.4957 25.0714C13.0426 24.6405 13.6889 24.309 14.3186 23.9776C14.6003 23.8285 14.8986 23.7125 15.1969 23.5799C15.5615 23.4307 15.9427 23.265 16.3072 23.0661C17.0033 22.6684 17.517 22.105 17.8484 21.3758C18.4947 22.0884 18.7433 23.1987 18.3787 23.961C18.2296 24.2593 18.213 24.5742 18.329 24.8393C18.445 25.1045 18.6936 25.3199 19.025 25.4028C19.1245 25.4359 19.2239 25.4525 19.3233 25.4857C19.5056 25.5354 19.6714 25.5685 19.8536 25.6514C20.2017 25.8005 20.3674 26.0325 20.384 26.3805C20.4337 27.2589 21.08 27.3583 21.2623 27.3749C21.6931 27.3914 22.008 27.5572 22.1903 27.8554C22.4389 28.2366 22.4886 28.8498 22.2897 29.3801C21.9417 30.3412 22.0743 30.6064 23.0355 31.0041C23.4498 31.1698 23.7646 31.5179 23.8806 31.9322C23.9966 32.3465 23.9304 32.7773 23.6818 33.1253ZM27.4933 17.266L27.2282 21.989L26.6482 32.479C26.6482 32.6447 26.6482 32.8105 26.5984 32.9762C26.5487 33.2248 26.4493 33.2745 26.2836 33.2579C26.0847 33.2579 25.9024 33.2579 25.7036 33.2579C26.1013 31.8327 25.5875 30.4075 24.3778 29.5955C24.2286 29.4961 24.2121 29.4795 24.2452 29.2806C24.5601 27.6234 23.6818 26.0657 22.1737 25.6017C21.8589 24.6239 21.1131 24.1268 20.4834 23.845C20.6491 22.3204 20.0857 20.9118 18.7765 19.5695C18.4616 19.2546 18.0804 18.9729 17.6496 18.7574C17.3181 18.5917 16.8375 18.6083 16.5393 18.7906C16.2078 19.006 16.1581 19.5363 16.2078 19.818C16.3072 20.4146 16.125 20.8952 15.6278 21.2101C15.1638 21.525 14.6003 21.8067 13.8877 22.0884C12.9929 22.4364 12.0648 22.801 11.3191 23.5302C10.6728 24.1433 10.3579 24.8393 10.3413 25.6348C8.78357 26.3474 8.10412 27.6069 8.38585 29.2641C8.41899 29.4629 8.41899 29.4629 8.28641 29.5458C7.06009 30.3578 6.54636 31.783 6.94408 33.2248C6.67893 33.2248 6.44693 33.2248 6.21492 33.2082C6.11549 33.2082 6.01605 33.1916 5.99948 32.711C5.94977 31.9156 5.91662 31.1201 5.86691 30.3247L5.13774 17.2328H27.5099L27.4933 17.266Z" fill="#5477CD"/>
</g>
<defs>
<clipPath id="clip0_50_114">
<rect width="30.3267" height="35" fill="white" transform="translate(0 0.163574)"/>
</clipPath>
</defs>
</svg>
