<svg width="166" height="95" viewBox="0 0 166 95" fill="none" xmlns="http://www.w3.org/2000/svg">
<g clip-path="url(#clip0_50_246)">
<path d="M80.4523 78.5179H94.1232C99.2277 78.5179 103.366 82.1181 103.366 86.5591C103.366 91.0002 99.2277 94.6003 94.1232 94.6003H80.4523C75.3478 94.6003 71.2098 91.0002 71.2098 86.5591C71.2098 82.1181 75.3478 78.5179 80.4523 78.5179Z" stroke="#5477CD" stroke-miterlimit="10"/>
<path d="M80.4522 62.4274H98.9464C104.051 62.4274 108.189 66.0276 108.189 70.4687C108.189 74.9097 104.051 78.5099 98.9464 78.5099H80.4522C75.3477 78.5099 71.2097 74.9097 71.2097 70.4687C71.2097 66.0276 75.3477 62.4274 80.4522 62.4274Z" stroke="#5477CD" stroke-miterlimit="10"/>
<path d="M160.456 43.2756C161.954 41.7488 162.854 39.7665 162.854 37.6083C162.854 32.7804 158.352 28.8637 152.803 28.8637H77.6501" stroke="#5477CD" stroke-miterlimit="10"/>
<path d="M99.5618 46.345H106.985C112.093 46.345 116.228 49.9419 116.228 54.3862C116.228 58.8305 112.093 62.4274 106.985 62.4274H80.4612C75.353 62.4274 71.2186 58.8305 71.2186 54.3862C71.2186 49.9419 75.353 46.345 80.4612 46.345H96.0614H131.506" stroke="#5477CD" stroke-miterlimit="10"/>
<path d="M26.1728 68.0227C63.1153 77.8145 64.7875 40.0543 69.6108 33.0602C72.8264 28.3921 94.2882 21.8216 108.225 17.9689C112.709 16.7219 115.447 13.1409 115.447 9.3761C115.447 7.93731 115.052 6.47455 114.188 5.0997C113.205 3.53302 111.753 2.31005 110.063 1.51073C107.445 0.255782 104.238 0.0159844 101.28 1.03912L94.0585 3.70887L24.023 29.5751C9.47013 34.9466 0.613477 47.2722 0.613477 60.3252C0.613477 64.0501 1.33927 67.8389 2.85519 71.5398C8.20226 84.5848 22.2498 93.4093 38.1624 93.7131L79.1106 94.5124L83.7043 94.6003" stroke="#5477CD" stroke-miterlimit="10"/>
<path d="M128.116 67.1754C128.116 76.1439 136.468 83.4098 146.776 83.4098C157.084 83.4098 165.436 76.1439 165.436 67.1754C165.436 58.207 146.776 37.952 146.776 37.952C146.776 37.952 128.116 58.207 128.116 67.1754Z" stroke="#5477CD" stroke-miterlimit="10"/>
<path d="M132.995 66.0644C132.995 73.4981 139.169 79.517 146.776 79.517" stroke="#5477CD" stroke-miterlimit="10"/>
<path d="M131.507 33.1561C130.882 36.0257 130.873 38.9112 131.507 41.7808C132.14 38.9112 132.131 36.0257 131.507 33.1561Z" fill="#5477CD"/>
<path d="M129.669 34.7547C129.044 37.6243 129.035 40.5099 129.669 43.3795C130.303 40.5099 130.294 37.6243 129.669 34.7547Z" fill="#5477CD"/>
<path d="M106.701 33.1561C106.076 36.0257 106.067 38.9112 106.701 41.7808C107.335 38.9112 107.326 36.0257 106.701 33.1561Z" fill="#5477CD"/>
<path d="M104.863 34.7547C104.238 37.6243 104.229 40.5099 104.863 43.3795C105.497 40.5099 105.488 37.6243 104.863 34.7547Z" fill="#5477CD"/>
</g>
<defs>
<clipPath id="clip0_50_246">
<rect width="165.741" height="95" fill="white" transform="matrix(-1 0 0 1 165.895 0)"/>
</clipPath>
</defs>
</svg>
