<svg width="27" height="28" viewBox="0 0 27 28" fill="none" xmlns="http://www.w3.org/2000/svg">
<path d="M11.6332 16.5637L8.7665 13.697C8.52206 13.4525 8.21095 13.3303 7.83317 13.3303C7.45539 13.3303 7.14428 13.4525 6.89984 13.697C6.65539 13.9414 6.53317 14.2525 6.53317 14.6303C6.53317 15.0081 6.65539 15.3192 6.89984 15.5637L10.6998 19.3637C10.9665 19.6303 11.2776 19.7637 11.6332 19.7637C11.9887 19.7637 12.2998 19.6303 12.5665 19.3637L20.0998 11.8303C20.3443 11.5859 20.4665 11.2748 20.4665 10.897C20.4665 10.5192 20.3443 10.2081 20.0998 9.96366C19.8554 9.71921 19.5443 9.59699 19.1665 9.59699C18.7887 9.59699 18.4776 9.71921 18.2332 9.96366L11.6332 16.5637ZM13.4998 27.497C11.6554 27.497 9.92206 27.147 8.29984 26.447C6.67761 25.747 5.2665 24.797 4.0665 23.597C2.8665 22.397 1.9165 20.9859 1.2165 19.3637C0.516504 17.7414 0.166504 16.0081 0.166504 14.1637C0.166504 12.3192 0.516504 10.5859 1.2165 8.96366C1.9165 7.34143 2.8665 5.93032 4.0665 4.73032C5.2665 3.53032 6.67761 2.58032 8.29984 1.88032C9.92206 1.18032 11.6554 0.830322 13.4998 0.830322C15.3443 0.830322 17.0776 1.18032 18.6998 1.88032C20.3221 2.58032 21.7332 3.53032 22.9332 4.73032C24.1332 5.93032 25.0832 7.34143 25.7832 8.96366C26.4832 10.5859 26.8332 12.3192 26.8332 14.1637C26.8332 16.0081 26.4832 17.7414 25.7832 19.3637C25.0832 20.9859 24.1332 22.397 22.9332 23.597C21.7332 24.797 20.3221 25.747 18.6998 26.447C17.0776 27.147 15.3443 27.497 13.4998 27.497ZM13.4998 24.8303C16.4776 24.8303 18.9998 23.797 21.0665 21.7303C23.1332 19.6637 24.1665 17.1414 24.1665 14.1637C24.1665 11.1859 23.1332 8.66366 21.0665 6.59699C18.9998 4.53032 16.4776 3.49699 13.4998 3.49699C10.5221 3.49699 7.99984 4.53032 5.93317 6.59699C3.8665 8.66366 2.83317 11.1859 2.83317 14.1637C2.83317 17.1414 3.8665 19.6637 5.93317 21.7303C7.99984 23.797 10.5221 24.8303 13.4998 24.8303Z" fill="#20D37A"/>
</svg>
