<svg width="64" height="65" viewBox="0 0 64 65" fill="none" xmlns="http://www.w3.org/2000/svg">
<g clip-path="url(#clip0_50_9)">
<path d="M42.5701 0.230286C42.6601 0.270286 42.7501 0.330286 42.8401 0.350286C47.5801 1.37029 49.7101 6.65029 46.9901 10.6503C46.9301 10.7403 46.8801 10.8203 46.8101 10.9203C48.6401 13.6503 48.6701 16.3903 46.8301 19.1503C48.6401 21.8503 48.6601 24.5703 46.9301 27.1903C47.3301 28.2603 47.8501 29.2503 48.0501 30.3003C48.2401 31.3303 48.0901 32.4103 48.0901 33.3803C49.1901 33.3203 50.4501 33.1003 51.6901 33.2003C55.7801 33.5203 58.9901 35.3203 60.9101 39.0903C60.9901 39.2603 61.0601 39.4303 61.1301 39.6003C61.3601 40.2303 61.2101 40.6603 60.6801 40.8903C60.1601 41.1203 59.7001 40.9403 59.4401 40.3403C58.8801 39.0603 58.1001 37.9603 57.0201 37.0903C56.6701 36.8103 56.3001 36.5703 56.0501 36.3903C56.2101 37.6503 56.5301 38.9503 56.5001 40.2503C56.3901 45.0303 54.5901 49.0703 50.9801 52.3003C48.7601 54.2903 46.3101 55.9303 43.7501 57.4203C43.5701 57.5203 43.3901 57.6303 43.1401 57.7703C43.7601 59.0603 44.3801 60.3303 45.0401 61.6803C45.8701 61.2003 46.6901 60.7603 47.4701 60.2703C50.9901 58.0503 54.2901 55.5703 56.8901 52.2603C58.8101 49.8103 60.0801 47.0903 60.1301 43.9103C60.1301 43.3203 60.5301 42.9803 61.0801 42.9903C61.6501 43.0003 61.9901 43.3803 61.9801 44.0203C61.9501 46.8103 61.0701 49.3503 59.5701 51.6703C58.8501 52.7803 58.0201 53.8203 57.1901 54.9603C57.9201 55.4103 58.7001 55.9103 59.4901 56.3803C60.4501 56.9503 60.5401 57.2403 60.0201 58.2303C59.1701 59.8403 58.3201 61.4503 57.4601 63.0603C57.0101 63.9003 56.5801 64.0503 55.7501 63.5503C54.2901 62.6503 52.8301 61.7403 51.4201 60.7703C50.9301 60.4303 50.6201 60.4603 50.1401 60.7703C48.5701 61.7603 46.9601 62.7003 45.3401 63.6303C44.5101 64.1003 44.0601 63.9303 43.6501 63.0803C42.8201 61.3903 42.0001 59.7003 41.1801 58.0003C40.8101 57.2303 40.9501 56.8403 41.6901 56.4303C42.6601 55.8903 43.6301 55.3403 44.6201 54.7903C43.9401 53.8303 43.2601 52.9403 42.6601 52.0103C41.6301 50.4403 40.8801 48.7403 40.4701 46.9003C40.4001 46.5703 40.2601 46.4103 39.9101 46.2803C39.0801 45.9903 38.2901 45.5903 37.4001 45.2103C35.7701 46.4403 33.8301 46.7703 31.6501 46.3203C31.7001 46.6203 31.7501 46.8503 31.7801 47.0803C32.0301 49.2403 31.5001 51.1603 29.9601 52.7203C29.0801 53.6103 28.6401 54.6303 28.6701 55.8903C28.7001 57.3803 28.7001 58.8703 28.6701 60.3603C28.6301 62.1803 27.4401 63.5703 25.7301 63.8503C24.2201 64.1003 22.6101 63.1803 22.0601 61.6903C21.8801 61.2003 21.8201 60.6403 21.8101 60.1103C21.7801 58.6603 21.7901 57.2103 21.8001 55.7603C21.8001 54.7003 21.5501 53.7203 20.7501 53.0003C18.4501 50.9103 17.7501 47.0103 20.0101 43.9803C18.8701 42.4703 18.4201 40.7503 18.6901 38.8603C18.9101 37.3503 19.6501 36.1003 20.7501 35.0603C22.8801 33.0403 26.3501 32.5303 29.3401 34.6703C31.1001 33.3403 33.0901 33.0103 35.2901 33.5103C34.7101 31.2603 35.0101 29.2203 36.3801 27.3903C34.5301 24.6403 34.5301 21.9003 36.3601 19.1603C35.0201 16.9503 34.8801 16.3103 35.1501 13.4503C34.3601 13.4503 33.5701 13.4803 32.7801 13.4503C31.6601 13.3903 30.6401 13.0003 29.7201 12.3703C29.4501 12.1803 29.2701 12.1503 28.9601 12.3403C26.4801 13.9103 23.9801 13.8903 21.4801 12.3603C21.3201 12.2603 21.0201 12.2003 20.9001 12.2803C19.1901 13.4403 17.3301 13.7503 15.3301 13.3003C15.2901 13.3003 15.2501 13.3103 15.1501 13.3303C15.6201 15.4303 15.2801 17.3803 13.9501 19.1603C14.7101 20.1903 15.1901 21.3403 15.3001 22.6303C15.4301 24.2103 15.1101 25.6803 14.1901 26.9903C13.9901 27.2803 14.0001 27.4603 14.1901 27.7503C15.8401 30.2503 15.7001 33.3603 13.8801 35.6203C12.0801 37.8503 9.01006 38.6803 6.37006 37.6503C3.70006 36.6103 1.93006 33.8303 2.11006 30.9203C2.18006 29.7603 2.56006 28.6903 3.25006 27.7503C3.45006 27.4703 3.46006 27.3003 3.25006 27.0003C1.70006 24.7003 1.72006 21.8403 3.25006 19.5203C3.35006 19.3603 3.38006 19.0403 3.29006 18.9003C1.64006 16.2703 1.68006 13.6803 3.42006 11.1103C3.44006 11.0803 3.45006 11.0303 3.48006 10.9503C2.55006 9.68028 2.04006 8.24029 2.11006 6.63029C2.19006 4.90029 2.84006 3.42029 4.07006 2.20029C4.52006 1.75029 5.06006 1.71029 5.45006 2.06029C5.86006 2.43029 5.84006 3.01029 5.40006 3.49029C3.50006 5.61029 3.47006 8.04028 5.31006 10.2003C5.85006 10.8303 5.84006 11.1903 5.27006 11.8203C3.55006 13.7003 3.54006 16.4203 5.23006 18.3103C5.87006 19.0303 5.88006 19.3603 5.23006 20.0603C3.56006 21.8903 3.56006 24.6403 5.23006 26.5003C5.87006 27.2103 5.87006 27.5503 5.23006 28.2503C3.48006 30.1803 3.56006 33.0003 5.42006 34.8603C7.20006 36.6403 10.0501 36.6903 11.9301 34.9603C13.8101 33.2303 14.0001 30.3803 12.3601 28.4003C11.5301 27.4003 11.5301 27.3203 12.3801 26.3203C13.8501 24.5903 13.8201 21.8803 12.3201 20.1503C11.5501 19.2703 11.5501 19.0603 12.3001 18.2103C13.9101 16.4103 13.8401 13.6403 12.1401 11.7603C11.5701 11.1303 11.6601 10.4703 12.3701 10.0703C12.8101 9.82029 13.2601 9.83029 13.6201 10.2203C15.4101 12.1203 18.7001 12.0403 20.3901 10.2603C20.8601 9.76029 21.3801 9.77029 21.8601 10.2603C23.6601 12.1003 26.9001 12.0303 28.5901 10.2503C29.0601 9.75029 29.5401 9.80029 30.0701 10.2603C32.1901 12.1103 34.6701 12.1003 36.7801 10.2403C37.2601 9.82028 37.7801 9.82029 38.2101 10.2503C38.6501 10.6803 38.7101 11.2503 38.2601 11.6803C36.4301 13.3903 36.4001 16.6903 38.2401 18.4503C38.7301 18.9203 38.7401 19.4103 38.2501 19.8703C36.4301 21.5803 36.3901 24.8803 38.2401 26.6503C38.7301 27.1203 38.7401 27.6103 38.2401 28.0703C36.3701 29.8303 36.3901 33.2103 38.3701 34.9803C38.8401 35.4003 38.7801 35.9803 38.3201 36.4603C37.8301 36.9803 37.2801 37.0003 36.7401 36.5103C35.2401 35.1203 33.5101 34.8203 31.6201 35.5003C31.1101 35.6903 30.6401 36.0303 30.2101 36.3803C29.4301 37.0203 29.1601 37.0503 28.4001 36.3803C25.5801 33.9203 21.3001 35.3203 20.5401 38.9803C20.2401 40.4403 20.6001 41.7703 21.5501 42.9303C22.3901 43.9503 22.4001 44.0303 21.5601 45.0103C20.0401 46.7903 20.0301 49.5903 21.6801 51.2603C23.1001 52.7003 23.7201 54.3603 23.6401 56.3603C23.5901 57.6603 23.6201 58.9703 23.6401 60.2703C23.6501 61.2603 24.2201 61.9203 25.0701 62.0003C26.0101 62.0903 26.7601 61.3203 26.7801 60.2203C26.8001 58.9203 26.8301 57.6103 26.7801 56.3103C26.6901 54.3303 27.3301 52.7003 28.7301 51.2703C30.4401 49.5203 30.3701 46.6603 28.6901 44.8403C28.1301 44.2303 28.1001 43.7603 28.5801 43.2803C29.0501 42.8103 29.5501 42.8203 30.1001 43.3203C31.5301 44.6303 33.1801 44.9603 34.9901 44.3603C35.5601 44.1703 36.1001 43.8103 36.5801 43.4303C37.3901 42.7803 37.6101 42.7703 38.4401 43.4403C38.9101 43.8203 39.4501 44.1103 40.0101 44.4803C40.1301 43.4303 40.1801 42.5003 40.3601 41.6003C40.8901 38.9803 42.2101 36.8303 44.3901 35.2503C46.6201 33.6303 47.0201 30.4203 45.2101 28.3603C44.4201 27.4503 44.4201 27.2803 45.2001 26.3803C46.7401 24.6103 46.7301 21.8803 45.1701 20.1203C44.4401 19.2903 44.4401 19.0503 45.1701 18.2303C46.7501 16.4603 46.7501 13.6903 45.1701 11.9203C44.4401 11.1003 44.4401 10.8603 45.1601 10.0303C46.8401 8.10028 46.7401 5.30029 44.9401 3.51029C43.1401 1.72029 40.3501 1.65029 38.4201 3.35029C37.6401 4.04029 37.3701 4.04029 36.5701 3.33029C34.7801 1.72029 32.0001 1.73029 30.2201 3.35029C29.4501 4.05029 29.1701 4.04029 28.3801 3.33029C26.5801 1.72029 23.8101 1.73029 22.0301 3.35029C21.2601 4.05029 20.9801 4.05029 20.1901 3.34029C18.3701 1.71029 15.5901 1.74029 13.8001 3.40029C13.1001 4.04029 12.6801 4.06029 11.9701 3.42029C11.0601 2.60029 9.99006 2.15029 8.76006 2.14029C8.24006 2.14029 7.76006 2.10029 7.54006 1.52029C7.31006 0.930286 7.69006 0.600286 8.06006 0.260286C8.60006 0.260286 9.14006 0.260286 9.68006 0.260286C10.7701 0.690286 11.8601 1.11029 12.8301 1.49029C13.9401 1.07029 15.0401 0.660286 16.1401 0.260286C16.7201 0.260286 17.3001 0.260286 17.8801 0.260286C18.9701 0.540286 20.0701 0.830286 20.9801 1.55029C21.0401 1.60029 21.2301 1.59029 21.3001 1.53029C22.2001 0.830286 23.2701 0.550286 24.3401 0.260286H26.0801C27.1701 0.550286 28.2601 0.830286 29.1801 1.56029C29.2401 1.61029 29.4301 1.59029 29.5001 1.53029C30.4001 0.830286 31.4701 0.550286 32.5401 0.260286H34.2801C35.3501 0.550286 36.4201 0.820286 37.3201 1.52029C37.4001 1.58029 37.5901 1.57029 37.7001 1.52029C38.7201 1.10029 39.7301 0.670286 40.7401 0.250286C41.3601 0.250286 41.9801 0.250286 42.6001 0.250286L42.5701 0.230286ZM46.1101 36.2103C45.4701 36.7603 44.8201 37.2203 44.2901 37.7903C42.5901 39.6003 41.8601 41.8003 41.9501 44.2603C42.0901 47.9603 43.8501 50.9403 46.2201 53.7203C47.3801 52.8003 48.4901 51.9303 49.5701 51.0703C46.1301 46.6203 44.6501 41.8503 46.1001 36.2103H46.1101ZM50.9301 49.6503C52.2801 48.1403 53.4901 46.6403 53.8301 44.6603C54.0401 43.4503 53.7201 42.3703 52.6301 41.6903C51.5601 41.0203 50.4201 40.9903 49.3501 41.6903C48.3001 42.3803 48.0301 43.4303 48.2301 44.6303C48.5601 46.5803 49.6301 48.1203 50.9301 49.6503ZM54.6101 40.7203C54.7101 39.2303 54.6101 37.8703 53.7701 36.6703C52.6801 35.0903 50.6701 34.7003 49.1401 35.7603C47.8001 36.6903 47.0201 38.9603 47.4701 40.6203C50.1101 38.9103 52.3401 38.9103 54.6101 40.7103V40.7203ZM56.0701 61.6303C56.7701 60.3003 57.4401 59.0503 58.1201 57.7703C57.3001 57.2503 56.5301 56.7603 55.7701 56.2703C54.6201 57.2603 53.5101 58.2103 52.3501 59.2103C53.6101 60.0303 54.8101 60.8103 56.0701 61.6203V61.6303Z" fill="#5377CD"/>
<path d="M44.45 6.87027C44.47 7.63027 44.21 8.29027 43.68 8.83027C43.26 9.26027 42.76 9.30027 42.35 8.97027C41.95 8.65027 41.91 8.13027 42.25 7.64027C42.87 6.75027 42.62 6.07027 41.59 5.81027C40.98 5.66027 40.68 5.23027 40.8 4.69027C40.91 4.16027 41.37 3.89027 41.99 3.98027C43.43 4.20027 44.45 5.39027 44.46 6.86027L44.45 6.87027Z" fill="#5377CD"/>
<path d="M44.4599 23.3903C44.4599 24.0203 44.2099 24.7003 43.6599 25.2503C43.2399 25.6703 42.7299 25.6903 42.3299 25.3303C41.9599 25.0103 41.9099 24.4903 42.2599 24.0503C42.7099 23.4903 42.7099 22.9903 42.2599 22.4403C41.8899 21.9803 41.9599 21.4603 42.3699 21.1203C42.7699 20.7903 43.2299 20.8203 43.6499 21.2303C44.2099 21.7803 44.4699 22.4603 44.4699 23.3903H44.4599Z" fill="#5377CD"/>
<path d="M44.4599 15.3503C44.4599 15.7803 44.2299 16.4503 43.7099 17.0003C43.2799 17.4603 42.7599 17.5103 42.3299 17.1503C41.9399 16.8203 41.8999 16.3003 42.2699 15.8203C42.6999 15.2803 42.6899 14.7903 42.2699 14.2603C41.8999 13.7903 41.9499 13.2803 42.3499 12.9403C42.7599 12.5903 43.2399 12.6303 43.6699 13.0603C44.2099 13.6003 44.4499 14.2703 44.4599 15.3503Z" fill="#5377CD"/>
</g>
<defs>
<clipPath id="clip0_50_9">
<rect width="64" height="64" fill="white" transform="translate(0 0.050293)"/>
</clipPath>
</defs>
</svg>
