<svg width="48" height="48" viewBox="0 0 48 48" fill="none" xmlns="http://www.w3.org/2000/svg">
<g clip-path="url(#clip0_0_113)">
<path d="M45.1373 24.6392C45.1612 24.5774 45.1731 24.5221 45.1731 24.4731C45.1731 24.4239 45.1612 24.3684 45.1373 24.3066L41.7509 13.0158C41.3291 13.114 41.0056 13.317 40.7803 13.6248C40.555 13.9325 40.4423 14.2807 40.4423 14.6694L40.4423 24.0691C40.4423 24.9066 40.4113 25.6182 40.3494 26.2039C40.2874 26.7897 40.1515 27.3914 39.9417 28.0091L38.9869 31.0211C38.8676 31.4082 38.6292 31.6863 38.2719 31.8556C37.9143 32.0251 37.5502 32.0483 37.1795 31.9251C36.8086 31.8023 36.5368 31.5643 36.3642 31.2111C36.1913 30.858 36.1644 30.487 36.2838 30.0984L37.1312 27.6032C37.31 27.0222 37.4369 26.3725 37.5119 25.654C37.5869 24.9355 37.634 24.0043 37.6532 22.8604L37.6532 22.3469C37.193 22.3469 36.796 22.4539 36.4623 22.6679C36.1285 22.882 35.9032 23.1638 35.7864 23.5134L31.8244 34.6492C31.8127 34.6863 31.8038 34.7203 31.7979 34.751C31.7917 34.7817 31.7886 34.8154 31.7886 34.8522L31.7886 38.4031L41.372 38.4031L45.1373 24.6392ZM47.8693 25.3882L44.2541 38.4031C45.0239 38.6222 45.6418 39.0677 46.1079 39.7394C46.574 40.4112 46.8071 41.1224 46.8071 41.8728L46.8071 44.5302C46.8071 45.4845 46.478 46.3013 45.8197 46.9808C45.1615 47.6603 44.3702 48 43.4457 48L32.3609 48C31.4368 48 30.6456 47.6603 29.9873 46.9808C29.3291 46.3013 29 45.4845 29 44.5302L29 34.8738C29 34.6726 29.0214 34.4687 29.0641 34.262C29.1072 34.055 29.1573 33.8631 29.2143 33.6862L33.205 22.5019C33.5171 21.6308 34.0695 20.9074 34.8622 20.3316C35.655 19.7558 36.5853 19.4679 37.6532 19.4679L37.6532 14.6694C37.6532 13.2913 38.0841 12.1686 38.946 11.3013C39.8075 10.4338 40.9261 10 42.3017 10C42.8286 10 43.2528 10.144 43.5745 10.4319C43.8965 10.7198 44.1515 11.1553 44.3396 11.7385L47.8404 23.3839C47.9405 23.699 47.9935 24.0301 47.9994 24.3772C48.0056 24.7239 47.9622 25.0609 47.8693 25.3882ZM43.4457 45.1209C43.6128 45.1209 43.7499 45.0656 43.8571 44.9549C43.9644 44.8442 44.018 44.7027 44.018 44.5302L44.018 41.8728C44.018 41.7007 43.9733 41.5592 43.8841 41.4482C43.7945 41.3375 43.6484 41.2821 43.4457 41.2821L31.7886 41.2821L31.7886 44.5302C31.7886 44.7027 31.8424 44.8442 31.9499 44.9549C32.0572 45.0656 32.1942 45.1209 32.3609 45.1209L43.4457 45.1209Z" fill="#5477CD"/>
<path d="M3.01334 24.6392C2.98822 24.5774 2.97566 24.5221 2.97566 24.4731C2.97566 24.4239 2.98822 24.3684 3.01334 24.3066L6.57802 13.0158C7.02199 13.114 7.36256 13.317 7.59972 13.6248C7.83687 13.9325 7.95545 14.2807 7.95545 14.6694L7.95545 24.0691C7.95545 24.9066 7.98807 25.6182 8.05331 26.2039C8.11855 26.7897 8.2616 27.3914 8.48244 28.0091L9.4875 31.0211C9.61309 31.4082 9.86395 31.6863 10.2401 31.8556C10.6165 32.0251 10.9998 32.0483 11.39 31.9251C11.7804 31.8023 12.0665 31.5643 12.2482 31.2111C12.4303 30.858 12.4585 30.487 12.3329 30.0984L11.4409 27.6032C11.2526 27.0222 11.119 26.3725 11.0401 25.654C10.9612 24.9355 10.9116 24.0043 10.8914 22.8604L10.8914 22.3469C11.3758 22.3469 11.7937 22.4539 12.145 22.6679C12.4963 22.882 12.7335 23.1638 12.8565 23.5134L17.0269 34.6492C17.0393 34.6863 17.0486 34.7203 17.0548 34.751C17.0613 34.7817 17.0646 34.8154 17.0646 34.8522L17.0646 38.4031L6.97681 38.4031L3.01334 24.6392ZM0.137624 25.3882L3.94304 38.4031C3.13273 38.6222 2.48227 39.0677 1.99164 39.7394C1.50102 40.4112 1.25571 41.1224 1.25571 41.8728L1.25571 44.5302C1.25571 45.4845 1.60215 46.3013 2.29502 46.9808C2.9879 47.6603 3.82088 48 4.79396 48L16.4622 48C17.435 48 18.2678 47.6603 18.9607 46.9808C19.6536 46.3013 20 45.4845 20 44.5302L20 34.8738C20 34.6726 19.9775 34.4687 19.9325 34.262C19.8871 34.055 19.8344 33.8631 19.7744 33.6862L15.5736 22.5019C15.2451 21.6308 14.6637 20.9074 13.8292 20.3316C12.9948 19.7558 12.0155 19.4679 10.8914 19.4679L10.8914 14.6694C10.8914 13.2913 10.4378 12.1686 9.53056 11.3013C8.62369 10.4338 7.44623 10 5.99818 10C5.44362 10 4.99703 10.144 4.65843 10.4319C4.31949 10.7198 4.05102 11.1553 3.85301 11.7385L0.167958 23.3839C0.0625926 23.699 0.00680838 24.0301 0.000611384 24.3772C-0.00591367 24.7239 0.0397597 25.0609 0.137624 25.3882ZM4.79396 45.1209C4.61814 45.1209 4.47379 45.0656 4.36092 44.9549C4.24805 44.8442 4.19162 44.7027 4.19162 44.5302L4.19162 41.8728C4.19162 41.7007 4.23859 41.5592 4.33254 41.4482C4.42682 41.3375 4.58062 41.2821 4.79396 41.2821L17.0646 41.2821L17.0646 44.5302C17.0646 44.7027 17.008 44.8442 16.8948 44.9549C16.7819 45.0656 16.6377 45.1209 16.4622 45.1209L4.79396 45.1209Z" fill="#5477CD"/>
<path d="M23.5 23C20.5707 23 18.0884 22.0069 16.0531 20.0208C14.0177 18.0347 13 15.6125 13 12.7542C13 10.4441 13.683 8.19919 15.0489 6.01956C16.4148 3.83993 18.2878 1.92339 20.6678 0.269934C21.1181 -0.0540621 21.5906 -0.0863943 22.0853 0.172939C22.5797 0.432045 22.827 0.829584 22.827 1.36556V2.52402C22.827 3.3594 23.1751 4.08936 23.8713 4.7139C24.5678 5.33821 25.3891 5.65037 26.335 5.65037C26.7496 5.65037 27.1512 5.57159 27.5397 5.41403C27.9284 5.25647 28.2852 5.03141 28.61 4.73883C28.7967 4.55486 29.0179 4.44762 29.2736 4.41711C29.5293 4.38637 29.7676 4.45331 29.9883 4.61793C31.2429 5.58127 32.2253 6.77878 32.9353 8.21046C33.6451 9.64238 34 11.1569 34 12.7542C34 15.6125 32.9823 18.0347 30.947 20.0208C28.9116 22.0069 26.4293 23 23.5 23ZM15.1 12.7542C15.1 14.1307 15.4371 15.4119 16.1112 16.5977C16.785 17.7835 17.7116 18.7398 18.8909 19.4665C18.7868 19.2739 18.7122 19.0816 18.6672 18.8897C18.6224 18.698 18.6 18.4971 18.6 18.2869C18.6 17.6546 18.7244 17.0591 18.9731 16.5004C19.2216 15.9416 19.5783 15.4355 20.0431 14.9819L23.5 11.664L26.9703 14.9819C27.4353 15.4355 27.7898 15.9416 28.0339 16.5004C28.278 17.0591 28.4 17.6546 28.4 18.2869C28.4 18.4971 28.3776 18.698 28.3328 18.8897C28.2878 19.0816 28.2132 19.2739 28.1091 19.4665C29.2884 18.7398 30.215 17.7835 30.8888 16.5977C31.563 15.4119 31.9 14.1307 31.9 12.7542C31.9 11.6157 31.6842 10.5399 31.2525 9.52671C30.8208 8.51351 30.1967 7.60846 29.38 6.81156C28.9133 7.10755 28.4233 7.32955 27.91 7.47754C27.3967 7.62554 26.8717 7.69954 26.335 7.69954C24.8795 7.69954 23.6209 7.23278 22.5592 6.29927C21.4975 5.36576 20.8895 4.20718 20.735 2.82354C18.915 4.31761 17.5208 5.91926 16.5525 7.6285C15.5842 9.33796 15.1 11.0465 15.1 12.7542ZM23.5 14.5301L21.505 16.4427C21.2483 16.6931 21.05 16.9777 20.91 17.2965C20.77 17.6152 20.7 17.9454 20.7 18.2869C20.7 19.0155 20.9742 19.6416 21.5225 20.1653C22.0708 20.689 22.73 20.9508 23.5 20.9508C24.27 20.9508 24.9292 20.689 25.4775 20.1653C26.0258 19.6416 26.3 19.0155 26.3 18.2869C26.3 17.9226 26.23 17.5868 26.09 17.2794C25.95 16.972 25.7517 16.6931 25.495 16.4427L23.5 14.5301Z" fill="#5477CD"/>
</g>
<defs>
<clipPath id="clip0_0_113">
<rect width="48" height="48" fill="white" transform="translate(0 48) rotate(-90)"/>
</clipPath>
</defs>
</svg>
