<svg width="32" height="33" viewBox="0 0 32 33" fill="none" xmlns="http://www.w3.org/2000/svg">
<path d="M1.146 22.2575C0.753997 21.9602 0.55983 21.5699 0.563497 21.0865C0.567497 20.6032 0.765664 20.2064 1.158 19.896C1.43466 19.6937 1.7385 19.5925 2.0695 19.5925C2.40016 19.5925 2.704 19.6937 2.981 19.896L15.6155 29.673C15.7308 29.7627 15.859 29.8075 16 29.8075C16.141 29.8075 16.2692 29.7627 16.3845 29.673L29.019 19.896C29.296 19.6937 29.5998 19.5925 29.9305 19.5925C30.2615 19.5925 30.5653 19.6937 30.842 19.896C31.2343 20.2064 31.4325 20.6032 31.4365 21.0865C31.4402 21.5699 31.246 21.9602 30.854 22.2575L18.219 32.065C17.55 32.5807 16.8103 32.8385 16 32.8385C15.1897 32.8385 14.45 32.5807 13.781 32.065L1.146 22.2575ZM13.781 23.196L3.281 15.0345C2.35 14.3115 1.8845 13.3642 1.8845 12.1925C1.8845 11.0205 2.35 10.073 3.281 9.35003L13.781 1.18853C14.45 0.673195 15.1897 0.415527 16 0.415527C16.8103 0.415527 17.55 0.673195 18.219 1.18853L28.719 9.35003C29.65 10.073 30.1155 11.0205 30.1155 12.1925C30.1155 13.3642 29.65 14.3115 28.719 15.0345L18.219 23.196C17.55 23.7114 16.8103 23.969 16 23.969C15.1897 23.969 14.45 23.7114 13.781 23.196ZM16.3845 20.804L26.8655 12.673C27.0322 12.545 27.1155 12.3849 27.1155 12.1925C27.1155 12.0002 27.0322 11.8399 26.8655 11.7115L16.3845 3.58103C16.2692 3.49103 16.141 3.44603 16 3.44603C15.859 3.44603 15.7308 3.49103 15.6155 3.58103L5.1345 11.7115C4.96783 11.8399 4.8845 12.0002 4.8845 12.1925C4.8845 12.3849 4.96783 12.545 5.1345 12.673L15.6155 20.804C15.7308 20.8937 15.859 20.9385 16 20.9385C16.141 20.9385 16.2692 20.8937 16.3845 20.804Z" fill="#5477CD"/>
</svg>
