<svg width="43" height="38" viewBox="0 0 43 38" fill="none" xmlns="http://www.w3.org/2000/svg">
<path d="M7.80402 4.45755C7.51936 5.44488 7.31419 6.44688 7.18852 7.46355C7.06286 8.48022 7.00002 9.50522 7.00002 10.5386C7.00002 12.6385 7.30969 14.6699 7.92902 16.6326C8.54802 18.5956 9.43069 20.4501 10.577 22.1961C10.7924 22.486 10.8897 22.806 10.869 23.156C10.8487 23.506 10.7142 23.8054 10.4655 24.054C10.2169 24.3027 9.93419 24.4039 9.61753 24.3575C9.30086 24.3115 9.03486 24.1437 8.81952 23.854C7.47052 21.8924 6.43269 19.7834 5.70602 17.527C4.97902 15.2707 4.61552 12.9412 4.61552 10.5386C4.61552 9.49755 4.67836 8.45972 4.80402 7.42505C4.92969 6.39038 5.11819 5.35888 5.36952 4.33055L2.47702 7.22305C2.24102 7.45905 1.96152 7.58021 1.63852 7.58655C1.31552 7.59288 1.03602 7.47172 0.800024 7.22305C0.564024 6.98738 0.449358 6.70788 0.456024 6.38455C0.462358 6.06155 0.583524 5.78205 0.819524 5.54605L5.27302 1.09255C5.63469 0.730881 6.05652 0.550049 6.53852 0.550049C7.02052 0.550049 7.44236 0.730881 7.80402 1.09255L12.277 5.56555C12.513 5.80155 12.631 6.07788 12.631 6.39455C12.631 6.71122 12.513 6.98738 12.277 7.22305C12.041 7.47172 11.7615 7.58771 11.4385 7.57105C11.1155 7.55438 10.836 7.43838 10.6 7.22305L7.80402 4.45755ZM29.746 37.6306C29.0564 37.8715 28.3487 37.9837 27.623 37.967C26.8974 37.9504 26.2 37.778 25.531 37.4501L14.1345 32.1615C13.7245 31.9665 13.4419 31.6589 13.2865 31.2386C13.1315 30.8179 13.1514 30.4025 13.346 29.9925L13.4075 29.869C13.6769 29.3564 14.0442 28.943 14.5095 28.629C14.9749 28.3147 15.4909 28.1307 16.0575 28.0771L20.6115 27.6346L14.954 12.15C14.8054 11.745 14.8189 11.3617 14.9945 11C15.1699 10.6384 15.4602 10.3832 15.8655 10.2345C16.2705 10.0859 16.6539 10.0994 17.0155 10.275C17.3769 10.4507 17.6319 10.741 17.7805 11.146L23.973 28.1305C24.1807 28.6999 24.1205 29.2339 23.7925 29.7325C23.4642 30.2312 22.9987 30.5139 22.396 30.5805L18.527 30.8846L26.8075 34.723C27.0922 34.8487 27.4032 34.923 27.7405 34.946C28.0775 34.9694 28.3949 34.9284 28.6925 34.8231L36.0615 32.1461C37.2359 31.7281 38.0852 30.9531 38.6095 29.8211C39.1339 28.6891 39.187 27.5359 38.769 26.3615L36.019 18.8615C35.8704 18.4565 35.8807 18.0732 36.05 17.7115C36.2194 17.3499 36.5065 17.0947 36.9115 16.946C37.3165 16.7974 37.6999 16.8077 38.0615 16.977C38.4232 17.1464 38.6784 17.4335 38.827 17.8386L41.577 25.3385C42.305 27.3102 42.2364 29.2269 41.371 31.0886C40.5057 32.9499 39.0872 34.2384 37.1155 34.9541L29.746 37.6306ZM23.919 15.281C24.3244 15.132 24.7077 15.1454 25.069 15.321C25.4307 15.4967 25.6859 15.7872 25.8345 16.1925L28.0575 22.273C28.2062 22.6654 28.1929 23.0507 28.0175 23.429C27.8419 23.807 27.5579 24.0704 27.1655 24.219C26.7732 24.368 26.3847 24.3514 26 24.1691C25.6154 23.987 25.3487 23.6999 25.2 23.3075L23.0075 17.196C22.8589 16.791 22.8724 16.4077 23.048 16.046C23.2237 15.6847 23.514 15.4297 23.919 15.281ZM30.0845 15.1885C30.4899 15.0399 30.8732 15.05 31.2345 15.219C31.5962 15.3884 31.8514 15.6755 32 16.0805L33.523 20.2925C33.6717 20.6849 33.6634 21.0682 33.498 21.4425C33.3327 21.8169 33.0475 22.0784 32.6425 22.227C32.2502 22.3757 31.8649 22.359 31.4865 22.177C31.1085 21.9951 30.845 21.7079 30.696 21.3155L29.173 17.0845C29.0244 16.6795 29.0379 16.2994 29.2135 15.944C29.3892 15.589 29.6795 15.3372 30.0845 15.1885Z" fill="#5477CD"/>
</svg>
